<?xml version="1.0" encoding="utf-8"?>
<!-- Generator: Adobe Illustrator 24.1.2, SVG Export Plug-In . SVG Version: 6.00 Build 0)  -->
<svg version="1.1" xmlns="http://www.w3.org/2000/svg" xmlns:xlink="http://www.w3.org/1999/xlink" x="0px" y="0px"
	 viewBox="0 0 595.3 841.9" style="enable-background:new 0 0 595.3 841.9;" xml:space="preserve">
<style type="text/css">
	.st0{fill:#FFFFFF;}
	.st1{fill:none;}
	.st2{fill:#010101;}
</style>
<g id="ORGINAL">
</g>
<g id="Layer_2">
	<g>
		<path class="st2" d="M387.8,674c0.4-0.2,0.5-0.7,0.2-1.1c-2.7-3-10.8-3.5-14.2-0.7c-0.3,0.3-0.3,0.8,0,1.1
			C377,675.7,384.4,676,387.8,674z"/>
		<path class="st2" d="M103.1,622.9c3.5-8.6,6.1-16.3,9.8-24.8c1.2-2.7-4.7-7-5.1-6.2c-3.2,7.9-6.1,15.8-9.4,23.6
			c-1,2.4-0.6,4.9,1,5.9C101.1,622.5,102.8,623.1,103.1,622.9z"/>
		<path class="st2" d="M174.1,609.1c0.8-6.8,1.7-13.7,2.5-20.5c0.5-4.4,1-8.7,1.4-13.1c0.2-2.1,0.8-4.6-1.4-5.9
			c-3.6-2.1-7.4-3.9-11.3-5.5c-3.2-1.3-3.9-0.7-4.3,2.7c-0.6,6.1-1.3,12.2-1.9,18.3c-0.5,5.2-1.1,10.4-1.5,15.6
			c-0.1,0.9,0.2,2.4,0.8,2.7c4.9,2.5,10,4.7,15.3,7.1C174,609.8,174.1,609.4,174.1,609.1z"/>
		<path class="st2" d="M365.6,630.7c0,0-0.3,5.9-0.4,8.9l0.6-0.4c0-3.1,0.2-9,0.2-9L365.6,630.7z"/>
		<polygon class="st2" points="433.9,402.5 433.9,402.5 433.9,402.5 		"/>
		<path class="st2" d="M367,638.6l0.5-0.2c0.1-3,0.4-9.7,0.4-9.7l-0.5,0.5L367,638.6z"/>
		<path class="st2" d="M229.6,623.3c1.7,9.2,3.5,19.4,5.2,28.7c0,0,0.8,0.1,1.3,0.1c-1.7-9.3-3.7-19.2-5.4-28.5
			C230.3,623.4,229.6,623.3,229.6,623.3z"/>
		<path class="st2" d="M526.2,497.1c0,0,6.3,29,6.7,29c0.4,0,3.3,0.5,3.3,0.5l-7.6-29.2C527.9,497,526.2,497.1,526.2,497.1z"/>
		<path class="st2" d="M523,496.6c0,0,6,28.6,6.3,28.6c0.3,0,2.1,0.4,2.1,0.4l-6.9-28.8C524.1,496.5,523,496.6,523,496.6z"/>
		<path class="st2" d="M341.4,298.1c-5.6-6.3-10.6-13.1-15.9-19.7c-2.2-2.8-4.3-5.6-6.2-8.1c9.2,19.8,24.9,34,43.7,45.2
			c-4-3.4-8-6.6-12.1-9.8C347.7,303.3,344.1,301.1,341.4,298.1z"/>
		<polygon class="st2" points="369.1,637.6 369.9,637.3 370.3,626.3 369.5,626.9 		"/>
		<path class="st2" d="M440.9,586l-2.1-34.6l-0.7-0.1l1.3,34.7C439.4,586,440.3,586,440.9,586z"/>
		<path class="st2" d="M451.4,587.8l-5.9-35l-1.6-0.6c0,0,4,34.4,4.5,34.4C449.2,586.7,451.4,587.8,451.4,587.8z"/>
		<path class="st2" d="M232.8,624.3c1.7,8.6,3.8,19.8,5.5,28.4c0,0.1,0.9,0.4,1,0.4c-1.7-8.6-3.8-19.8-5.5-28.4
			C233.6,624.6,232.9,624.3,232.8,624.3z"/>
		<path class="st2" d="M86.2,539.5c3.6-12.5,7.1-24.9,10.8-37.3c0.6-2,0.1-3.2-1.4-4.2l-9.3-6.5c-1.7-1.2-2.5-0.5-3,1.2
			c-3.9,13.5-7.9,27.1-11.9,40.6l14.3,7.9C85.8,540.6,86,540.1,86.2,539.5z"/>
		<polygon class="st2" points="390.6,588.2 390,588.1 389.4,603.7 389.9,603.8 		"/>
		<polygon class="st2" points="377.9,587.9 377.4,588.1 376.9,603.8 377.4,603.8 		"/>
		<polygon class="st2" points="371,590 370.2,590.5 369.6,606.1 370.7,605.6 		"/>
		<polygon class="st2" points="394,589.2 393.2,588.9 392.5,604.5 393.4,604.9 		"/>
		<polygon class="st2" points="393.7,636.7 394.5,637.2 395.1,625.8 394.4,625.3 		"/>
		<polygon class="st2" points="368.1,591.9 367.2,592.7 366.7,607.4 367.6,606.9 		"/>
		<polygon class="st2" points="400.4,593.5 399.6,592.7 399,607.7 399.8,608.2 		"/>
		<polygon class="st2" points="377.7,635.1 378.1,635 378.5,623.8 378.1,623.8 		"/>
		<polygon class="st2" points="371.6,636.7 372.4,636.4 372.7,624.9 372,625.3 		"/>
		<polygon class="st2" points="374.7,635.7 375.5,635.4 375.8,624 375.1,624.2 		"/>
		<polygon class="st2" points="388.2,634.9 388.6,635 389.1,623.7 388.7,623.7 		"/>
		<path class="st2" d="M400.7,631.2c0,0-0.4,5.8-0.7,8.9l0.3,0.3c0.1-3.1,0.7-8.6,0.7-8.6L400.7,631.2z"/>
		<polygon class="st2" points="390.8,635.5 391.5,635.9 392,624.4 391.3,624.1 		"/>
		<polygon class="st2" points="396.2,637.9 396.9,638.3 397.4,627.5 396.7,626.9 		"/>
		<path class="st2" d="M398.5,639.1l0.5,0.3l0.4-9.5l-0.4-0.5C398.9,629.4,398.6,636.1,398.5,639.1z"/>
		<path class="st2" d="M439.6,320.2c8.3,8.6,16.7,17.2,22,28.2C458,336.2,449.6,327.6,439.6,320.2z"/>
		<polygon class="st2" points="314.4,699.9 314.2,725.1 316.2,726.1 315.9,700.7 		"/>
		<path class="st2" d="M290.5,724.1c0.1,0,0.6-0.2,0.8-0.2c0.3-6.9,1-25.4,1-25.4l-0.4,0.1C291.9,698.6,290.8,717.2,290.5,724.1z"/>
		<path class="st2" d="M484.4,626.5c1.2,7.7,2.5,16.1,3.7,23.9c0.4-0.2,1-0.5,1-0.5c-1.2-7.7-2.7-16.2-3.9-23.9
			C485.2,625.9,484.6,626.2,484.4,626.5z"/>
		<path class="st2" d="M482.3,628.2c1,7.2,2.6,16.6,3.6,23.8c0.1,0,0.7-0.6,0.7-0.6c-1.1-7.2-2.6-16.6-3.6-23.8
			C482.8,627.6,482.4,628.1,482.3,628.2z"/>
		<polygon class="st2" points="307.4,723.1 308.4,723.3 308.7,698.6 308.6,698.5 		"/>
		<polygon class="st2" points="311.2,724.1 312.5,724.6 313.2,699.6 312.4,699.3 		"/>
		<path class="st2" d="M498.7,625.1l4.1,23.4c0,0,0.7,0.2,1.5,0.5c0.1,0.2-4.5-23.6-4.5-23.6L498.7,625.1z"/>
		<path class="st2" d="M384.2,296c0.2,0.7,0.5,1.3,0.7,2C384.6,297.3,384.4,296.6,384.2,296C384.2,296,384.2,296,384.2,296z"/>
		<path class="st2" d="M132.6,354.4C132.6,354.4,132.6,354.4,132.6,354.4c0.1-0.1,0.3-0.2,0.4-0.3
			C132.9,354.3,132.8,354.3,132.6,354.4z"/>
		<path class="st2" d="M531.4,572.4c-4,0.7-7,2.1-6.9,3s3.5,1.2,7.5,0.5c4-0.7,7-2.1,6.9-3C538.7,571.9,535.3,571.7,531.4,572.4z"/>
		<path class="st2" d="M77,549.1c0.2-0.6,0.5-1-0.2-1.6c-0.7-0.7-5-3.2-6.9-4.3c-1.8,6.4-3.2,11.6-4.7,17.4
			c-0.4,1.4,0.4,1.7,0.9,1.9c1.8,0.9,6.1,2.3,6.1,2.3C73.9,559.3,75.4,554.4,77,549.1z"/>
		<path class="st2" d="M395.2,328.5c-4.1-3.6-8.3-7.2-12.4-10.8C387,321.3,391.1,324.9,395.2,328.5L395.2,328.5z"/>
		<path class="st2" d="M383.4,317.1c-0.2,0.2-0.4,0.4-0.6,0.6C383,317.5,383.2,317.3,383.4,317.1L383.4,317.1z"/>
		<path class="st2" d="M525.1,540.6c4.7-0.3,7.6-0.7,13.8,1.1C533.9,538.9,530.1,538.9,525.1,540.6z"/>
		<path class="st2" d="M212.8,628.6c0,0,4.4,28.9,4.5,28.5c0.8-0.8,1.5-1.2,1.5-1.2l-4.8-28.1L212.8,628.6z"/>
		<path class="st2" d="M-12.7-14.3l-1.3,870.2l623.6,0.9l1.3-870.2L-12.7-14.3z M368.9,84.8c38.7,0.1,77.4,0.1,116.3,0.2
			c0,7.4,0,14.8,0,22.4c-14.2,0-28.3,0-42.7-0.1c0,15.2,0,30-0.1,44.8c0,14.8,0,29.5-0.1,44.4c-9.7,0-19.1,0-28.8,0
			c0-29.6,0.1-59.2,0.1-89.1c-15,0-29.8,0-44.8-0.1C368.9,99.7,368.9,92.3,368.9,84.8z M232.3,113.8c0.2-15.6,10.8-27.1,26.6-28.8
			c3.6-0.4,7.3-0.4,10.9-0.4c17.7,0,35.5,0,53.2,0.1c10.7,0.1,19.6,4.3,26.4,12.5c1.6,2,2.9,4.4,3.8,6.8c2.4,5.9,1.9,12.1,1.8,18.5
			c-10.2,0-20.1,0-30.4,0c0-2.3,0-4.6,0-6.8c0-5.4-3-8.4-8.4-8.4c-15.3-0.1-30.7-0.1-46-0.1c-4.1,0-7.3,2.8-8.2,7.2
			c-0.3,1.6-0.4,3.2-0.4,4.9c-0.1,14-0.1,28.1-0.1,42.1c0,0.5,0,1,0,1.5c0.2,8.5,3.3,11.4,11.9,11.4c13.5,0,27,0,40.5,0
			c1.7,0,3.5-0.2,5.1-0.7c3.7-1.1,5.4-3.4,5.5-7.2c0.1-3.1,0-6.2,0-9.4c10.3,0,20.2,0,30.5,0c-0.2,7.2,1,14.4-2,21.3
			c-5.2,11.9-15,17.9-27.7,18.2c-21.7,0.5-43.4,0.5-65.1-0.1c-14.2-0.3-27.9-10.4-28-28.3C232.1,149.9,232.1,131.9,232.3,113.8z
			 M104.7,156.5c9.9,0,19.6,0,29.7,0c0,3,0,5.9,0,8.8c0.1,4.5,2.7,7.6,7.2,8.2c2.8,0.4,5.6,0.3,8.4,0.3c7.9,0,15.7,0.1,23.6-0.3
			c5-0.3,7.5-3.4,7.5-8.3c0-25.9,0.1-51.8,0.1-77.7c0-1,0-1.9,0-3c9.7,0,19.2,0,28.9,0c0.1,0.7,0.2,1.4,0.2,2.1
			c0,26.9-0.1,53.8-0.2,80.6c-0.1,12-7.1,21.8-18.5,26.3c-4.8,1.9-9.8,2.8-15,2.7c-13.6-0.1-27.2,0.3-40.8-0.2
			c-12.8-0.5-23-6-28.7-17.7c-1.3-2.6-2.1-5.6-2.4-8.4C104.4,165.5,104.7,161.1,104.7,156.5z M55.6,559.2c1.4-5.2,4.2-15.6,4.2-15.6
			c0.2-0.9,1.4-2.7,3.8-3.2c-1.6,6.2-3.3,13.5-5.1,19.5c-0.7,2.3,0.5,3.3,2.6,4.1c2.5,0.8,10.8,3.7,10.8,3.7l0.2-2
			c0,0-8.1-2.8-10.5-3.9c-0.8-0.4-1.2-1.2-1-2c0.6-2.6,1.9-8.2,2.8-12c0.4-1.5,0.9-3,1.3-4.6c1.1-4.1,4.2-4.3,7.7-2.2l4.9,3.1
			c0,0,2.9,2.1,2.3,4.1c-1.8,6-7,21.9-7,21.9s-11-3.6-13.8-4.7C54.9,563.9,54.5,563.2,55.6,559.2z M178.5,276.9
			c0.8,8.2-0.5,16.2-4.2,23.4c-4.3,8.2-9.7,15.9-14.8,23.8c-0.9,1.4-2.2,2.5-3.3,3.7c0.2,0.2,0.4,0.3,0.6,0.5
			c2.7-3.2,5.6-6.2,7.9-9.6c6.8-9.9,12.8-20.1,17.5-31.1c1.1-2.6,2.7-5.1,4.1-7.6c-2.3,11.3-5.1,22.4-11.7,32.1
			c-4.5,6.7-9.5,12.9-16.5,17c-6.6,4-12.4,8.8-16.7,15c-3.8,5.5-6.7,11.6-10.1,17.5c-0.3,0.5-0.5,1-1.2,1.5
			c-0.1-0.9-0.3-1.8-0.3-2.7c-0.3-13,4.1-24.2,12.8-34c4.9-5.6,9.9-11.2,14-17.3c6.1-9.1,9.3-19.4,11.8-30
			c0.8,10.4-2.3,19.9-7.5,28.9C170.2,299.3,174.7,288.3,178.5,276.9z M217.6,288.7c6.8-12.9,17.7-21.1,30.9-26.8
			c0.1,0,0.3,0.1,0.4,0.1c-3.6,2.8-7.5,5.5-11,8.6c-8.7,7.6-14.5,17.4-20.3,27.2c-3.6,6-7.7,11.8-11.8,17.6c-2.6,3.6-6,6.6-10,8.5
			c-1.4,0.7-2.9,1.5-4.3,2.2c7.5-1.6,14-4.9,19.3-10.4c5.7-6,10.3-12.7,14.1-20c4.6-9,10.3-17.1,18.1-23.8
			c6.3-5.4,13.9-8.3,21.3-11.5c0.1,0.2,0.2,0.4,0.3,0.6c-4.9,3-13.5,8.9-13.5,8.9l-0.1,0.1c0,0-0.6,0.4-0.8,0.6
			c7.9-4.8,15.3-9.7,25.4-13.3c0.2,0.2,0.3,0.5,0.5,0.7c-1.7,1.4-3.3,2.9-5.1,4.2c-2.8,2.1-5.7,4.1-8.5,6.3
			c-6.1,4.9-10.9,10.8-13.8,18.1c-0.9,2.3-2.1,4.5-2.7,7c3-4.6,6-9.1,9-13.7c3.1-4.7,7-8.8,11.7-12c4.6-3.1,9.5-5.9,14.3-8.8
			c0.2,0.2,0.3,0.3,0.5,0.5c-2.2,2-4.3,4.3-6.7,6c-5.7,4.1-10.8,8.8-14.8,14.5c-2,2.8-3.7,5.7-5.9,8.4c-4.5,5.7-9.1,11.3-13.7,16.9
			c-0.4,0.5-0.9,1-1.3,1.5c0.1,0.2,0.3,0.3,0.4,0.5c2.4-1.7,4.8-3.4,7.1-5.3c6.6-5.3,11-12.3,15.8-19c4-5.7,8.7-10.6,15-13.8
			c4.5-2.3,8.6-5.3,11.5-9.7c0,8.6-23.8,37.8-34.7,47.4c-15.2,13.4-33.6,20.6-53.1,25.5c0.4-0.2,0.8-0.5,1.3-0.7
			c0.5-0.2,1.1-0.4,1.7-0.6c16.9-5.9,28.2-17.3,34.3-33.9c2.6-7.1,5.2-14.3,7.8-21.3c-3.1,3.6-5.4,7.9-7.4,12.5
			c-2.1,4.8-4,9.7-6.4,14.4c-6.7,12.9-17.5,21.1-30.7,27c-11.7,5.3-23.6,7.6-36.4,5.3c-0.7-0.1-1.4-0.3-2.1-1
			c4.5,0,8.9,0.4,13.3-0.1c4.5-0.5,9-1.4,13.3-2.7c4.3-1.3,8.3-3.4,12.3-5.7c-12.3,5.1-25.1,6.4-38.2,5.3c11.3-1.4,22-4.2,29.5-13.5
			c3.7-4.5,7.1-9.3,10.2-14.3c4-6.4,7.2-13.2,11.3-19.4c4-6.1,8.4-12.1,15-15.9c2.2-1.3,4.6-2.4,7.1-3.3
			c-12.5,8.7-19.5,21.3-25.2,34.7C213.6,295.7,215.7,292.3,217.6,288.7z M286,279.2c2.9-4.1,5.8-8.2,8.7-12.3
			c0.6,6.2-0.6,11.9-3.6,17c-8.2,13.9-19.7,24.4-34.4,31.3c-4.7,2.2-9.9,3.4-15,4.8c8.1-4.2,15.1-10,21.8-15.9
			c5.1-4.5,8.9-9.9,12.5-15.6c5.7-8.8,11.5-17.5,17.3-26.3c-0.8,6.5-5,11.2-7.9,16.7C285.6,278.9,285.8,279,286,279.2z M278.1,415
			c2.5-12,8.8-22.3,15.4-32.3c6.2-9.5,9.6-19.9,10.7-31c0-0.4,0.1-0.8,0.1-1.2c0-0.1,0.2-0.2,1-0.2c-0.3,3.3-0.3,6.6-0.9,9.8
			c-1.8,9.9-5.5,19.1-10.4,27.9c-4.8,8.5-9.4,17.1-11.4,26.8c-1.3,6.1-2.2,12.2-3.3,18.4c-0.1,0.3-0.2,0.6-0.8,0.9
			c-0.3-1.6-0.7-3.2-0.9-4.8c-0.5-5-1.3-10.1-1.4-15.1c-0.2-10,3.1-19,8.9-27.2c4.6-6.5,8.7-13.4,12.8-20.3c1.5-2.5,2.3-5.3,3.4-7.9
			c-0.6,9.3-4.8,17.1-9.9,24.5c-6.2,9-10.9,18.7-13.3,29.4C277.9,413.3,278,414.2,278.1,415z M306.5,269.2c1,3.6,1.8,7.3,2.9,10.9
			c1.2,3.7,2.5,7.4,4.3,10.8c1.8,3.4,4.3,6.4,6.7,9.4c-3.1-6.4-6.6-12.6-9.1-19.2c-2.5-6.6-4.1-13.6-5.5-20.7
			c2.8,6.5,5.6,13.1,8.3,19.6c0.2,0,0.3-0.1,0.5-0.1c-1.6-5.2-3.2-10.3-4.8-15.5c0.2-0.1,0.4-0.2,0.6-0.3c0.4,0.6,0.9,1.1,1.2,1.8
			c2.9,6.1,5.7,12.2,8.8,18.2c6.5,12.5,15.8,22.7,27.9,30.3c0.6,0.3,1.1,0.8,2.2,1.6c-6.2-1.8-11.1-1.1-25.8-15.4
			c2.9,3.4,5.9,6.8,8.8,10.1c-3.7,0.6-18.1-7.5-22.9-12.8c-8.1-9-8.5-19.5-6.8-30.6c1.6,8.6,1.5,17.7,7.4,25
			C306.7,285.3,306.4,277.3,306.5,269.2z M341.3,285.7c-3.3-5.5-7.5-10.2-12.2-14.5c-3.5-3.2-6.2-7.2-9.2-10.8
			c-0.5-0.7-0.7-1.6-0.9-2.6c4.8,5.6,11.4,8.8,17.6,12.4c6.2,3.6,10.8,8.7,14.6,14.6c4.1,6.3,7.8,12.8,12.2,18.9
			c2.4,3.3,5.9,5.9,9,8.7c0.9,0.8,2.3,1.2,3.6,1.6c-6.1-4.7-9.8-11-13.1-17.7c-2.8-5.7-6.1-11.1-9.5-16.5c-3.8-6.1-9.6-9.9-16-13
			c-4-1.9-8.2-3.5-11.1-7.1c-0.5-0.7-0.9-1.4-1.1-2.4c4.6,4.5,10.8,5.6,16.1,8.5c8.7,4.8,15.1,11.9,20.2,20.2
			c4,6.6,7.9,13.1,11.9,19.7c0.4,0.7,0.9,1.2,1.6,1.7c-3-5.3-6-10.6-9.2-15.9c-3-5-5.8-10.1-9.2-14.8c-4.2-5.9-10.2-9.8-16.3-13.7
			c-2.1-1.3-4.2-2.6-6.3-3.9c0.2-0.3,0.4-0.6,0.5-0.9c5.9,3.4,12.1,6.4,17.6,10.3c9.7,7,16.2,16.8,21.4,27.4
			c3,6.3,6.7,12.1,11.5,17.2c1.2,1.2,2.6,2.2,3.8,3.1c-5.1-9.3-10.1-18.8-15.4-28.1c-4.5-8-10.2-15.1-17.2-21.1
			c-2-1.7-3.8-3.5-5.9-5.4c8.6,1.3,21.6,13.4,30.5,27.9c0.2-0.1,0.4-0.2,0.6-0.3c-2.5-4.3-4.6-8.9-7.5-13c-3-4.1-6.7-7.8-10.1-11.6
			c5.4,2.3,9.8,6,13.5,10.6c5.5,6.7,9.1,14.3,12.6,22.1c2.3,5.2,4.6,10.4,7.7,15.1c8,12.3,19.7,18.9,34.6,20
			c1.1,0.1,2.2,0.3,3.3,0.4c0.4,0.1,0.8,0.1,1.2,0.7c-2.5,0-5,0.1-7.5,0c-2.7-0.2-5.4-0.5-8-1c-2.5-0.5-5-1.3-7.5-1.8
			c8.3,3.6,17,5.2,26,5c-9.2,2.5-18.3,2-26.6-2.3c-8-4.1-15.3-9.5-22.2-13.8c5.6,6.1,12,12.5,21.1,15.7c-0.1,0.2-0.2,0.5-0.3,0.7
			c-2.9-0.7-6-1.1-8.7-2.3c-5.4-2.4-10.7-5.2-15.9-8.1c-4.7-2.6-9.1-5.7-13.6-8.6c-11.5-7.3-19.4-17.6-25.2-29.6
			c-4-8.4-7.9-12.9-15.6-16.6c1.2,1.1,2.4,2.2,3.7,3.2c3.9,3.1,7.2,6.6,9.2,11.1c5.6,12.3,13.8,22.8,23.4,32.3c3.1,3,6.9,5.2,10.7,8
			c-4.1,0-7.9-0.9-11.3-2.9c-7.1-4.3-14.2-8.6-21.1-13.2c-4.9-3.3-9.8-6.9-14-11c-3.6-3.5-7.2-7.5-9.5-11.9
			c-4.1-7.9-7.3-16.4-10.9-24.6c-0.4-1-0.5-2.1-0.8-3.6c10.8,11.4,23.4,20.4,31.4,33.6c0.2-0.1,0.4-0.3,0.6-0.4
			C343.3,289.6,342.4,287.6,341.3,285.7z M393.4,277.6c0.2-0.1,0.4-0.3,0.6-0.4c0.9,1,1.9,1.9,2.7,3c4.9,6.5,8.6,13.6,11.1,21.4
			c1.9,6.1,4,12.3,8.4,17.2c2.5,2.8,5.6,5.2,8.3,8.2c-1.9-0.6-3.8-1-5.6-1.8c-12.9-6-20.9-16.3-24.8-29.6
			c-2.2-7.6-4.8-14.9-10.3-20.9c5.7,4.3,9.9,9.8,12.9,16.3c2.5,5.5,5.2,11,8.1,16.3c1.2,2.2,3,4,4.8,5.8
			C402.4,302.1,401.6,288.2,393.4,277.6z M422,278.3c2.2,6.3,4,12.1,6.4,17.8c2.4,5.8,5.6,11.1,10.3,15.5c-6.7-10-11.4-20.5-8.7-33
			c0.2,0.7,0.4,1.4,0.5,2.2c1.6,16.3,8.7,30.1,19.8,42c9.6,10.3,14.9,22.4,15.7,36.4c0,0.4,0,0.8,0,1.6c-1.8-3-3.4-5.6-4.9-8.3
			c-5.1-9.1-11.9-16.6-20.8-22.1c-16.1-10-23.9-24.9-27.4-42.7c-0.5-2.5-0.9-5-0.9-7.8c7.2,20.4,17.8,38.6,35,52.6
			C430.5,318.2,423,300.1,422,278.3z M504.2,537.1c-0.7-4.1-1.4-7.9-2.1-11.7c-1-5.7-1.9-11.5-3-17.2c-0.5-2.7,0.1-4.7,2.1-6.7
			c7-7,18.6-9.6,27.7-5.9c1.3,0.5,2.6,2.2,3,3.6c2.2,7.1,4.1,14.2,6.1,21.3c0.9,3.1,1.8,6.2,2.7,9.4
			C528.5,525.5,512.2,528.5,504.2,537.1z M541.3,536.5c-12.7-4.8-25.7-2-35.7,8.4c0.3-4,3.5-10.4,15.3-13
			C532.5,529.2,540.8,532.9,541.3,536.5z M503.7,496l-0.9-4.6c3.4-6.1,14.5-7.5,20.3-5.1l1.3,4.8C522.7,490.3,510,488.9,503.7,496z
			 M501.4,486.5l-0.9-4.6c3.4-6.1,14.5-7.5,20.3-5.1l1.3,4.8C520.4,480.8,507.7,479.4,501.4,486.5z M500,478l-0.8-4.3
			c3.1-5.7,13.4-7,18.8-4.7l1.2,4.5C517.7,472.7,505.9,471.4,500,478z M498.5,470.4l-0.8-4.3c3.1-5.7,13.4-7,18.8-4.7l1.2,4.5
			C516.2,465.1,504.4,463.8,498.5,470.4z M498.2,618.8c-5.2-1.8-12.8-0.5-17.5,3.8l-1.1-4.9c0.6-1.9,9.4-8.3,20.3-4.5
			c0.4,0.9,1.5,7.1,1.5,7.1l-2.3-1.1c0,0-0.6-2.4-1.5-5.1C497.9,615.7,498,617.2,498.2,618.8z M496.7,609.4l-0.7-2.6l0.2,2.5
			c0,0-10.7-1.9-16.4,4.3l-0.6-4.2c3.2-5.4,13-6.3,18.1-3.8l1,4.4L496.7,609.4z M452.3,597.7c-6.3-3.8-18.8-4-24.6,0.6
			c-3.2,2.6-4.6,5-1.6,8.1c-2.5,0-4.6-2.9-4-5.5c0.9-3.8,8.1-10.7,16.4-10.8c8.3-0.1,12.1,1.9,15.7,4.8c4,3.1,3.6,7-0.7,9.5
			C456.2,601.2,456.1,600,452.3,597.7z M441.2,624.8c-6.8,0.3-8.5,4.5-5.7,7.3c-1.4-0.4-2.9-1.7-3.1-3.5c-0.6-7.9-1.2-15.7-1.8-23.6
			c0-0.5,1.1-2.2,1.6-2.5c0.8,6.8,1.6,13.6,2.4,20.4c0.4-0.2,1.2-0.4,1.2-0.4l-1.8-21.4c1.8-2.1,8.6-2.2,9.8-0.3
			c0,0.1,2.2,21,2.2,21s1.5,0.2,2.4,0.5c0,0-1.9-17.5-2.3-21.1c0.2-0.1,2.1,2,2.3,2.4c1.1,7.5,2.1,15,3.2,22.5
			c0.3,2.1-1.2,3.4-2.7,4.3C450.8,626.9,448.9,624.4,441.2,624.8z M445.6,630.1c0.4,0,0.8,0.2,1.2,0.4c0.7,4.7,1.2,8.1,1.9,13.3
			c-2-2.2-7.8-1.5-9.9,0.4c-0.4-4.7-0.8-8.9-1.2-13.2c2-2.3,5.2-2.1,6.9-1.2c0.1,0.8,0.7,6.1,1.1,8.9c0.1,0.8,0.5,1.6,1.3,2.3
			C446.4,637.2,446,634,445.6,630.1z M444,643.3c5-0.4,5,5.1,5,5.1l-9.7,0.4C439.3,648.8,438.4,643.7,444,643.3z M382.5,643
			c-6.7-0.3-20.6,1.9-13.3,9.8c-2.3-0.5-3.9-2.4-4.4-4.6c-1-5,12.2-8,17.1-7.9c5.1,0.1,17.3,3.5,16.9,8.3c-0.2,1.9-2.1,3.5-4.9,4.1
			C397.1,650.1,397.1,643.8,382.5,643z M389.6,671.3c1,0.7,1.4,1.9,0.4,2.6c-6.5,4.3-16.1,2.2-18.9-1.2c-0.2-0.3-0.2-0.6,0-0.9
			C375.5,666.5,385.6,668.4,389.6,671.3z M371.4,667.9c0,0,0.3-12.7,0.4-18.4c0.7-0.6,1.2-1,2.1-1.4c-0.2,6-0.7,18.9-0.7,18.9
			S372.3,667.2,371.4,667.9z M376.8,665.9l0.6-18.9c2.5-0.8,7.2-0.7,9.6,0.3l-0.6,18.9C383.6,665.3,379.1,665.4,376.8,665.9z
			 M390.4,667.9c-0.9-0.7-1.8-1-1.8-1s0.3-12.6,0.5-18.5c0.9,0.4,1.3,0.6,2,1.2C390.9,655.2,390.4,667.9,390.4,667.9z M363.9,644.2
			c-0.1-0.9,0-14.6,0-14.6s4.7-9.2,20.3-8.6c14.4,0.6,18,9.6,18,9.6l-1.2,14.7C390.3,635.1,373.7,634.5,363.9,644.2z M353.6,563.9
			c0.1,1.6,0.3,3.2,0.2,4.8c-1.9-3.7-2.2-7.6-2.1-11.7c0.5-11,4.2-21,9.2-30.8c2.1-4.1,3.4-8.6,4.6-13c-3,5.9-6.1,11.8-9.1,17.7
			c-0.4-0.2-0.7-0.3-1.1-0.5c1.7-4.1,2.7-8.6,5.1-12.2c5.7-8.6,8.2-18.1,9.4-28.1c0.9,4.3,0.2,8.5-0.4,12.8
			c-0.6,4.2-1.4,8.5-2.1,12.7c5.2-11.4,6.8-23.3,5.2-35.6c2.2,10.4,3.2,20.9-0.5,31.1c-2.2,6.3-5.3,12.4-8.4,18.3
			C358,540.2,353.1,551.3,353.6,563.9z M339.6,591.1c0.4-3.2,0.7-6.4,1.4-9.5c0.6-3.1,1.6-6.1,2.8-9.1c-1.5,11.2-4.4,22.3,0.8,33.7
			c-6.6-6.6-9.6-17.2-4.7-26.4c-0.3,4-0.6,7.6-0.8,11.2C339.2,591.1,339.4,591.1,339.6,591.1z M334.7,580.4
			c-4.4,9.1-6.9,18.8-5.3,28.9c0.6,3.5,2.7,6.7,3.8,10.4c-1.6-2.4-3.9-4.6-4.8-7.3c-1.2-3.6-2-7.6-2-11.4c0-7.4,0.6-14.8,1-22.2
			c0.1-1.3,0.5-2.6,1-3.8c2.1-5.1,4.3-10.1,6.6-15.1c6.6-14.2,7.8-29.1,5.8-44.4c-3-23.1-12.5-43.8-24.8-63.4
			c-2.7-4.4-5.1-9-7.5-13.5c-0.6-1.1-0.8-2.4-1-3.6c14.7,20.9,28.4,42.2,34.4,67.4c3.9,16.3,5,32.8,0.2,49
			c-2.2,7.6-5.9,14.8-8.9,22.2c-2.5,6.1-4.4,12.4-4.1,19.1c0.5-2.7,0.7-5.4,1.7-7.9c2.8-6.9,5.9-13.7,8.8-20.6
			c5.4-13,7.6-26.4,6.8-40.4c-1.5-26.3-11.9-49.5-24.6-72.1c-3.4-5.9-6.1-12.2-9.1-18.3c-0.2-0.5-0.4-1,0-1.8
			c4.1,6.9,8.3,13.7,12.4,20.6c0.2-0.1,0.3-0.2,0.5-0.3c-2.8-5.4-5.6-10.8-8.4-16.1c0.2-0.1,0.4-0.2,0.5-0.3
			c2.4,3.9,4.8,7.7,7.1,11.6c9.1,15.6,17.2,31.6,21.5,49.2c4.3,17.5,4.7,34.9,1.1,52.6C345.1,560.1,339.6,570.1,334.7,580.4z
			 M316.8,569.8c1.5,8.5,3,17.1,2.1,25.7c-0.8,8.5-2.2,17-3.4,25.6c-0.4,0-0.9-0.1-1.3-0.1c0.9-10.2,1.8-20.4,2.7-30.6
			c-0.2,0-0.4,0-0.6,0c-0.8,5.4-1.6,10.8-2.4,16.1c-0.2,0-0.3,0-0.5,0c0.2-3.1,0.3-6.3,0.6-9.4c1.2-14.1,0.8-27.8-5.1-41.1
			c-1.4-3.3-1.7-7.1-2.4-10.6c-0.1-0.7,0-1.5,0-2.3c0.2,0,0.4,0,0.7,0c0.3,1.2,0.6,2.4,0.9,3.6c0.1,0,0.2,0,0.3-0.1c0-2.5,0-5,0-6.5
			c2.8,7.9,5.8,16.6,9,25.1c6.5,17.7,6,35.5,0.2,53.3c-0.2,0.5-0.4,1-0.8,2c1.1-8.8,2.6-17.1,3.2-25.5
			C320.5,586.4,319.5,578,316.8,569.8z M286,633.6c0,1.2,0,2.5,0,4.1c-3.1-4.2-3.7-8.7-4-13.3c-0.6-9.7,1.2-19.2,2.7-28.7
			c1-6.1,1.8-12.3,2.9-18.4c1.8,11.5-1.8,22.7-2.2,34.2c1.7-7.6,3.3-15.3,5-23.1c0,2,0.2,4,0,5.8c-1.4,9.1-3.2,18.2-4.4,27.3
			C285.6,625.5,286,629.6,286,633.6z M268.7,638.9c-3-3.7-5.3-7.7-7-12.2c-4.3-12.1-2.7-23.8,0.8-35.7c4.3-14.6,11.7-27.6,19.8-40.4
			c7.6-12.1,13.9-25.1,17.6-39c4.5-16.8,4.1-33.5-2.2-50c-0.8-2-1.2-4.1-1.8-6.2c-0.1-0.4-0.1-0.8-0.2-1.9
			c12.7,21.8,13.3,43.8,4.5,66.4c0.3,0.1,0.6,0.3,0.8,0.4c0.1-0.3,0.1-0.6,0.2-0.8c3.9-10.5,7.1-21.2,6.6-32.5
			c-0.5-11.7-3.9-22.9-7.6-33.9c-0.4-1.2-0.8-2.4-1.2-3.5c-0.1-0.5,0-1,0.5-1.6c2.4,5.7,4.8,11.5,7.2,17.2c0.2-0.1,0.4-0.1,0.6-0.2
			c-2-6.1-3.9-12.2-5.9-18.3c0.2-0.1,0.4-0.2,0.6-0.2c1.3,2.8,2.8,5.6,3.9,8.5c4.2,11.2,7,22.7,7.1,34.7
			c0.1,15.7-4.7,29.9-12.5,43.3c-5,8.6-10.1,17.1-15.1,25.6c-0.1,0.2-0.2,0.5,0.1,1c2.2-3.3,4.3-6.6,6.5-9.9
			c7-10.4,13.3-21.2,17.6-33c4.8-13.3,5.8-26.8,3.8-40.8c-1.4-10.1-4.7-19.7-8.1-29.2c-0.4-1-0.6-2.1-0.9-3.1
			c0.2-0.1,0.4-0.2,0.6-0.3c1,1.9,2.1,3.7,3,5.6c6.9,14.7,8.8,30.1,8.2,46.1c-0.7,19.6-8.3,36.6-18.7,52.7
			c-5.4,8.3-11.7,16.1-17.1,24.4c-7.4,11.3-11.7,23.9-13.2,37.3C266.4,619.3,266.2,629.1,268.7,638.9z M235.2,660.7
			c0.4,0.1,1.9,1,2.1,1.5c1.3,6.6,2.5,15.7,3.8,22.5c-4.4-1.5-8-0.8-10.4,0.4c-0.9-5.1-3-17.7-4-23.4c0.9-1.4,4.5-1.9,6.4-1
			c0,0.1,3.7,20.1,3.7,20.3c0,0,1.8,0.1,1.7,0C237.3,674.3,236.2,667.5,235.2,660.7z M229.4,685.6c-0.4,0.1-1.2,0.7-1.7,1
			c-1.1-4.8-4.4-21.3-4.4-21.4c0-0.9,1.9-2.8,1.9-2.8L229.4,685.6z M229.3,687.6c1.9-2,7.9-2.7,9.9-1.7c2.5,1.3,1.8,4.4,1.8,4.4
			l-11.8,2.1C229.3,692.5,227.4,689.7,229.3,687.6z M231.8,693.6l1.6,8.2l0.4,0l-1-8.4l7.6-1.5c0,0,1.7,9.7,1.9,11.5
			c0,0-3,6.7-4.3,6.9c-1.3,0.3-5.2-4.3-5.2-4.3l-2.2-12.2L231.8,693.6z M239.2,663.9c3.8-1.9,1.8-11.5-10.5-8.7
			c-13.6,3-12,9.6-9.1,12.4c-2.9-0.2-5.1-3.7-5.5-6.3l-5.3-32.4c0,0,3.6-5.6,12.6-7.9c9-2.3,14.6,1.7,15,3c1.9,9.2,5.2,23.7,7,32.9
			C244,659.9,242.9,662.1,239.2,663.9z M189.3,467.8c0.2-0.1,0.4-0.1,0.6-0.2c0.9,2.7,1.8,5.4,2.8,8.1c1,2.8,2,5.6,3.2,8.4
			c-0.6-9-4.3-17.6-3.2-26.7c2.2,8.8,4.7,17.5,6.6,26.3c2.4,11.2,1.4,22.3-1.5,33.3c-0.1,0.3-0.2,0.6-0.8,0.9
			C199.4,500.4,192.3,484.5,189.3,467.8z M173.6,613.8c-0.3-1.3-16-7.9-19.9-7.8c-3.9,0.1-10.4,2.3-11.1,4c-0.7,1.8,2.9,4,3.9,4.7
			c-4.3-0.6-5.9-3.8-5.8-6.6c1.3-11.8,2.7-23.6,3.7-35.5c1.1-5.4,8.8-9.6,9.8-10.2c4.4-2.6,9.2-3.1,13.8-0.9
			c3.9,1.8,7.6,4.2,11.3,6.6c0.9,0.6,1.7,2.4,1.7,3.5c-0.6,7.1-1.5,14.2-2.2,21.3c-0.6,6.1-1.3,12.2-1.7,18.4
			c-0.3,3.5-2.8,5.9-6.1,6C171,617,174.3,616.1,173.6,613.8z M155.6,652.1l2.1-9.7c0,0,1.1,0.8,1.2,1.7l-1.8,10.8
			c0,0-5.6,3.3-6.5,3.2c-1-0.1-3.4-5.2-3.4-5.2l0.8-10.4c1.3-2.2,7.8-2.2,8.7-0.6c0.2,0.3-1.5,10.3-1.5,10.3L155.6,652.1z
			 M147.7,641.1c-0.8-4.3,4.8-7.2,10-5.4l-0.4,3.2l0.8,0.5l0.8-3.3c0,0,2.5,2.2,0.7,6.3C156,637.8,149.9,638.6,147.7,641.1z
			 M146.8,636.1c0.9-7.5,1.7-14.5,2.6-21.5c0.2-1.3,0.3-2.7,2.4-2.9c-0.5,6.3-1.9,18.8-1.9,18.8l1.1,0.1c0,0,1.4-14.1,1.8-19.2
			c3.8-1.1,7.1-0.6,9.3,0.3l-2.9,19.8c1.1,0.3,1.6,0.6,1.6,0.6c0.8-6.4,2.9-19.7,2.9-19.7s1.8,1.9,1.8,2.5
			c-0.7,7.1-2.5,14.5-3.3,21.2C160.8,634.2,151.2,630.5,146.8,636.1z M94.6,621.2c-9.8-6.3-15.4-1.1-12.3,2.7
			c-2.4-0.8-3.8-3.2-2.7-6.1c3.9-10,7.9-19.9,12.1-29.8c0.5-1.1,2-2.3,3.2-2.5c10.1-1.9,16.3,0.3,21.1,8.9c0.4,0.8,0.3,2.1-0.1,3
			c-3.9,10.2-8,20.4-11.9,30.7c-0.9,2.2-1.7,3-4.9,3.6C103.1,629.3,104.4,627.5,94.6,621.2z M85.6,639.4c0,0-3.6-0.3-5.8-0.4
			c1.5-3.6,5.4-14.2,5.4-14.2s1.4-2.4,3.4-1.8c-1.4,4-4.1,11.9-4.1,11.9l0.5,0c0,0,2.1-5.2,3-7.9c1.4-4.1,2.3-4.5,6.3-2.3
			c-1.7,4.4-3.5,8.8-5.2,13.2C88.4,639.5,85.6,639.4,85.6,639.4z M87.4,641l-3.3,8.5l-7.1-1.7l2.4-7.6L87.4,641z M98.4,582l1.2-3.2
			c4.8-2.5,13.1,1.1,16.2,4.9l-1,3.5C113.9,586,105.6,580.1,98.4,582z M100.4,575.2l1.2-3.2c4.8-2.5,13.1,1.1,16.2,4.9l-1,3.5
			C116,579.1,107.6,573.2,100.4,575.2z M102.8,569.3l1.1-3c4.4-2.3,12.2,1,15.1,4.5l-0.9,3.3C117.3,573,109.5,567.5,102.8,569.3z
			 M104.8,564l1.1-3c4.4-2.3,12.2,1,15.1,4.5l-0.9,3.3C119.2,567.7,111.5,562.2,104.8,564z M211.2,337.6c-0.2,0.4-0.4,1-0.7,1.3
			c-17.6,19.4-31.4,41.3-44.2,64c-8,14.2-16.5,28.2-22.7,43.3c-7,16.9-11.4,34.5-14.9,52.4c-3.4,17.4-7.4,34.6-11.2,51.9
			c-0.3,1.4-0.8,2.8-1.3,4.3c-1.5-0.3-2.8-0.6-4.4-1c1-4.5,2.1-8.9,3-13.4c3.4-16.3,6.7-32.6,9.9-48.9c6.1-30.9,18-59.6,34.2-86.6
			c10.3-17.1,20-34.5,30.3-51.5c2.6-4.4,6.3-8.2,9.6-12.2c0.7-0.8,1.7-1.4,2.6-2.1c0.2,0.2,0.4,0.3,0.6,0.5
			c-6.7,6.5-10.4,14.7-14.2,22.8C194.8,353.4,202.2,344.8,211.2,337.6z M214.9,355.4c4.7-8.5,8.8-17.3,15.6-24.4
			c-3.7,6.9-7.5,13.9-11.2,20.9c-3.6,6.9-4.9,14.4-5.8,22.1c-0.2,1.9-0.4,3.8-0.6,5.7c0,0.4-0.2,0.8-0.4,1.2
			c-1.4,1.7-2.8,3.4-4.4,5.4c-0.2-16.1,3.3-30.9,11.5-44.6c-1.8,4.5-3.5,9-5.3,13.5C214.5,355.2,214.7,355.3,214.9,355.4z
			 M229.4,345.4c5.7-6.6,11.4-13.1,17.1-19.7c0.2,0.2,0.4,0.3,0.6,0.5c-11.3,16.8-25,32.2-32.2,51.6c3.2-18.7,12.2-34.5,24-49
			c0.2,0.1,0.3,0.2,0.5,0.4c-3.4,5.4-6.8,10.8-10.2,16.1C229.3,345.3,229.4,345.3,229.4,345.4z M260.7,331c2.3-3.9,4.7-7.7,7-11.6
			c-5.8,16.8-18.2,30.3-23.4,47.5c0.4-0.9,0.8-1.7,1.2-2.6c0.4-0.9,0.7-1.9,1.3-2.7c4.9-7.8,9.5-15.9,14.8-23.4
			c5.2-7.3,9.9-14.8,13.7-22.9c0.3-0.7,0.8-1.5,1.6-2c-1,3.2-2,6.5-3.1,9.7c-1.2,3.2-2.6,6.2-3.9,9.3c0.2,0.1,0.4,0.2,0.6,0.3
			c3.1-6.3,6.2-12.6,9.3-18.9c0.1,0,0.2,0,0.2,0c-0.4,1.6-0.8,3.2-1.3,4.7c-3.9,11-10,20.8-17.1,30.1c-7.2,9.5-14.1,19.1-18.2,30.4
			c-5,13.7-4.3,27,3.7,40.3c-1.3-4.1-2.6-7.5-3.4-11c-3.8-16.6,0.2-31.7,10-45.4c5.7-8,12.3-15.4,18.6-23c7.5-9,13.5-18.7,15.3-30.4
			c0-0.3,0.3-0.5,0.8-1.2c0.4,5.6-0.6,10.4-2.3,15.1c-3.5,10.2-8.5,19.5-15.8,27.6c-5.1,5.6-9.2,11.8-12.6,18.9
			c9-11.1,17.8-22,26.7-33c-0.3,0.9-0.5,1.8-0.9,2.6c-2.8,7.4-8.2,13-13,19.2c-5,6.4-9.9,13.1-14,20.1c-6.9,12-7.7,25.3-6.1,38.8
			c0.9,7.5,3.7,14.5,6.3,21.5c0.2,0.6,0.5,1.2,0.6,1.9c0.1,0.2,0,0.5-0.1,1.2c-1-1.5-1.8-2.6-2.5-3.7c-4.4-7.5-9.1-14.7-13.1-22.4
			c-5.8-11.2-6.2-23.2-4.4-35.5c1.5-10.4,5.6-19.7,10.5-28.9c4.6-8.7,9.1-17.4,13.7-26.1c0.8-1.4,1.5-2.9,2.3-4.3
			c0.2,0.1,0.4,0.2,0.6,0.3c-1.4,3.3-2.7,6.5-4.1,9.8C260.5,330.9,260.6,330.9,260.7,331z M277.5,366.9c0.2,0.1,0.3,0.1,0.5,0.2
			c-0.5,1.7-0.9,3.4-1.7,5c-5.4,11.4-5.4,23.3-4.3,35.4c0.9,9.9,2.1,19.7,4.8,29.2c1.2,4.1-1.8,6.8-3.2,10.1
			c-0.6-2.9-1.1-5.9-1.8-8.8c-2.1-9.3-6.7-17.5-11.1-25.9c-7.2-13.9-2.5-26.2,4.5-38.3c-5.5,13.3-4.7,26.4,1.3,39.5
			c-4.9-21.2,0.6-40.1,12.7-57.5c-4,8.4-7.9,16.8-10,26.6C272.2,376.8,274.9,371.8,277.5,366.9z M304.8,384.4
			c1.7-7.2,2.6-14.5,3.9-21.5c0.8,11.7,0.2,23.6-5.9,34.3c-3.7,6.5-8.1,12.6-12.2,18.9c-1.7,2.6-3.4,5.1-4.9,7.5
			c-0.6-5.9,9.7-30.3,18.9-43.2c-3.1,8-6.2,16-9.3,24C299.7,398.3,303.1,391.6,304.8,384.4z M297.4,416.6c5-7.4,9.7-15,13-23.3
			c4.6-11.5,5-23.1,1.7-34.9c-1.9-6.7-3.6-13.5-5.4-20.2c-0.2-0.9-0.3-1.8,0-2.8c1,1.8,2.1,3.6,3.1,5.5c2.9,5.8,6.1,11.5,8.7,17.4
			c3.7,8.4,2.3,16.9-0.5,25.3c-1,2.9-2.1,5.7-2.9,8.7c3.7-6.5,7.2-13.2,8.4-20.7c1.6-9.6-1.5-18.2-6.4-26.3c-1.5-2.5-3.1-5-4.9-7.3
			c-4.6-5.9-7.4-12.6-8.7-19.9c3,7.4,7,14.2,12.2,20.3c-5.4-7.6-9-15.8-11.3-24.8c-0.4-1.7-0.5-3.4-0.2-5.3c0.4,1.4,0.8,2.9,1.3,4.3
			c3,9,7.1,17.4,13.1,24.9c4.4,5.5,7.8,11.6,10,18.3c2.9,9.2,2,18.2-0.8,27.2c-0.1,0.3-0.2,0.6,0.2,1.1c0.4-0.9,0.9-1.8,1.2-2.7
			c5.3-15.4,1.9-29.4-7.8-42c-5.4-7-9.6-14.5-12.4-23c2.7,4.1,5.2,8,7.8,11.9c2.9,4.2,5.8,8.3,8.8,12.5
			c10.6,15.1,10.6,30.9,3.8,47.4c-4,9.7-10.9,17.3-17.4,25.3c-3.3,4-6.4,8.3-9.5,12.4c0.2,0.2,0.4,0.3,0.6,0.5
			c5.2-6,10.5-12.1,15.7-18.1c0.2,0.1,0.4,0.2,0.5,0.3c-0.5,1.1-0.9,2.3-1.6,3.3c-5.4,7.3-10.7,14.7-16.3,21.9
			c-12.8,16.4-22.2,34.5-26.3,54.9c-0.9,4.7-1,9.6-1.4,14.4c-0.1,1.6,0,3.3,0,4.9c-0.4,0.1-0.8,0.2-1.1,0.2c-0.4-1.5-1.2-3-1.3-4.5
			c-0.7-16.6,3.8-32.2,10.3-47.3c6.9-15.9,16.4-30.1,26.8-43.9c6-8,10.7-16.7,14.5-25.9c1.3-3.2,2.1-6.5,3.1-9.8
			c-0.2-0.1-0.4-0.1-0.6-0.2c-1.3,3.2-2.4,6.4-3.8,9.6c-5.5,12.1-12.8,23.2-20.7,33.9c-10.9,15-19.9,31-25.8,48.6
			c-3.3,9.8-5.3,19.9-5.4,30.3c0,1.4,0,2.8,0,4.7c-2.1-1.9-2.6-4.2-2.5-6.4c0.4-6.1,0.5-12.4,1.8-18.3
			C273.9,456.2,284.5,435.8,297.4,416.6z M345.5,378.4c1.2-6.6,0.9-13.1-0.4-19.7c-2.8-13.3-8.6-24.8-18.5-34.5
			c-3.6-3.6-6.4-8-9.5-12.1c0.2-0.1,0.4-0.3,0.6-0.4c5.6,5.7,11.1,11.5,16.7,17.2c0.1-0.1,0.2-0.1,0.3-0.2
			c-3.3-5.4-6.7-10.7-10-16.1c0.3-0.2,0.6-0.4,0.9-0.6c2.5,3.2,5.2,6.4,7.6,9.7c6.7,9.6,12.2,19.7,14.7,31.2
			c2.1,10.1,1.9,19.9-2.9,29.4c-2.5,4.9-4.5,9.9-7,14.9c2.4-11,0.5-22.1,1.7-33.1c0.9,4.4,1.8,8.8,2.7,13.3c0.2,0,0.4,0,0.5-0.1
			c-0.5-4-0.8-8-1.5-12c-2.1-10.7-7.7-19.7-14.6-28c-4.2-5.1-8.1-10.4-12-15.7c-1-1.3-1.5-3-2.2-4.5c0.2-0.1,0.4-0.2,0.6-0.4
			c4.3,8.9,12.5,14.5,18.6,21.9c9.3,11.2,14.4,23.9,13.6,38.6C345.3,377.6,345.3,378,345.5,378.4z M343,318.9
			c0.3-0.1,0.5-0.3,0.8-0.4c1.9,2.7,4,5.4,5.7,8.2c6.9,11.1,10.6,23.1,10.4,36.2c-0.1,7.5-2,14.7-5.1,21.5
			c-4.6,10.1-10.8,19.3-18,28.1c0.3-2,0.2-4.2,1-6.1c3.2-7.8,6.7-15.6,10.1-23.3c3.2-7.3,5.4-14.8,5.4-22.9c0-9.3-2.7-17.8-6.7-26.1
			c-2.2-4.5-4.3-9.1-6-14c2.6,4.4,5.3,8.8,7.9,13.2c2.6,4.4,5.4,8.9,6,14.1c0.6,5.2,1.1,10.4,1.7,16.1
			C358.4,346.4,352.3,332.2,343,318.9z M379.3,342.5c-2.4-4.2-5.2-8.3-8-12.9c5.6,3,14.2,19.5,15.7,29c1.8,11.2,0.3,22.1-2.8,32.9
			c-0.2,0-0.5,0.1-0.7,0.1c-0.3-1.5-0.9-3.1-0.8-4.5c1-9.4,1.8-18.9-0.3-28.3c-1.9-8.7-6.1-16.5-10.2-24.3c-0.6-1.2-1.4-2.4-2-3.6
			c0.2-0.1,0.3-0.3,0.5-0.4c5.5,8,10.7,16.2,13.5,25.7C383.3,351.4,381.7,346.7,379.3,342.5z M394.2,336.9
			c9.2,10.4,12.5,23.6,17,36.9c-1.1-11.5-5.6-21.2-10.3-30.8c20,26.8,16.5,54,0.7,82.1c-0.1-1.6-0.5-2.8-0.2-3.7
			c1.4-3.7,3-7.4,4.4-11.1c3.5-9.6,5.1-19.4,4.3-29.6c-0.1-0.7-0.2-1.3-0.3-2c-0.8,7-1.1,14.1-2.6,20.9c-1.6,7.2-4.4,14.2-6.7,21.3
			c-0.5-0.1-0.9-0.1-1.4-0.2c-0.1-1.2-0.4-2.4-0.1-3.5c2-7.9,4.3-15.7,6.1-23.6c2.1-9.2,0.5-18.1-2.2-27c-2.8-8.9-7.3-17-11.8-25
			c-0.9-1.5-1.6-3.2-2.4-4.7c0.2-0.1,0.5-0.3,0.7-0.4c2.6,3.8,5.3,7.5,7.7,11.5c2.4,4,4.4,8.2,6.7,12.2
			C402.2,351.7,397.7,344.5,394.2,336.9z M424.1,363.5c4,9,6.4,18.3,6.1,28.2c2.3-4.9,1.2-17.3-2.5-27.3c-3.3-8.8-8-16.9-14.2-24.7
			c6.4,4.3,16.2,17.9,19.1,30.8c-0.4-2.2-0.8-4.4-1.3-7.2c3.1,4.7,3.6,9.5,3.5,14.3c0,6.5-0.6,13.1-0.9,19.6
			c-0.1,1.8-0.1,3.6-0.1,5.4c0,0,0,0,0,0c2.8-6.9,2.9-14.1,2.8-21.4c-0.2-7.7-1.1-15.4-4.2-22.6c-0.1-0.2,0-0.5,0.1-0.8
			c8,10.8,9.5,33.2,2.5,47.5c-0.5-1.1-0.8-1.9-1.2-2.7l-0.1,0.1c0,0,0-0.1,0-0.1c-3.7-3.7-7.6-7.3-8.9-12.7
			c-2.4-9.9-4.3-20-7.3-29.7c-1.8-5.9-5.3-11.4-7.6-16.4c2.1,0.9,7.7,10,11.1,20.2c2.5,7.7,4.2,15.7,6.5,23.5
			C427.6,379.3,426,371.4,424.1,363.5z M484.4,572c0.7,4.6-3.9-22.5-0.4-2.4c-2.3-15.5-4.5-31-6.6-46.5
			c-2.6-18.8-6.6-37.3-13.2-55.2c-5.1-13.9-12.4-26.6-22-38.1c-8-9.6-16.1-19.3-22-30.4c-1.1-2-1.8-4.2-2.7-6.3
			c0.2-0.1,0.5-0.3,0.7-0.4c3.5,6.4,7,12.7,12.5,17.7c-2.6-4.5-5.3-9-7.9-13.5c0.2-0.1,0.5-0.3,0.7-0.4c2.1,2.9,4.1,5.9,6.3,8.8
			c7.5,9.7,15.3,19.3,22.6,29.1c11.7,15.8,18.2,33.9,21.8,52.9c3.9,20.7,6.6,41.7,9.8,62.5c1.9,12.6,4,25.8,5.9,38.4c-1,0-2,0-2.6,0
			c-1.5-8.6-2.6-14.6-3.3-18.6C484.1,570.3,484.2,571.1,484.4,572z M438,441.6c1,4.3,0.7,8.8-7.5,21.6c-1.3-0.6-1.3-0.6-0.2-4.2
			c-0.2-0.1-0.4-0.2-0.5-0.3c-0.5,0.8-0.9,1.6-1.7,2.9c-0.2-1.2-0.7-2.1-0.5-2.9c2-6.5,4.1-12.9,6.2-19.4c0-0.1,0.2-0.2,0.3-0.4
			c0.3,0,0.6,0.1,0.9,0.1c-1.3,6-2.7,12-4,18C434.9,452.9,436.7,447.6,438,441.6z M421.1,540.8l-0.1-4.7c5-5.5,17.6-5.2,23.5-2
			l0.5,4.9C443.3,538.1,429.5,534.8,421.1,540.8z M445.8,542.8l0.5,4.9c-1.9-1-16.4-4.2-25.2,1.8l-0.1-4.7
			C426.3,539.3,439.5,539.6,445.8,542.8z M421.6,532.5l-0.1-4.3c4.6-5.1,16.3-4.8,21.8-1.8l0.5,4.6
			C442.2,529.9,429.3,526.9,421.6,532.5z M421.6,525.3l-0.1-4.3c4.4-5.1,15.8-4.8,21.2-1.8l0.5,4.6
			C441.5,522.8,429.1,519.7,421.6,525.3z M421.9,516.5l-0.1-3.9c4-4.6,14.3-4.3,19.2-1.6l0.4,4.1C438.8,514,428.7,511.5,421.9,516.5
			z M423.9,454.3c-0.3,0-0.5,0-0.8,0c-0.1-1.1-0.7-2.3-0.3-3.3c2.8-7.5,4.1-15.3,4.3-23.3C429.5,437,427.7,445.8,423.9,454.3z
			 M421.3,451.6c-0.5-2.1-1.4-3.7-1.2-5.1c0.9-7.8,2.1-15.6,3.1-22.9C425,426.2,424.2,447.1,421.3,451.6z M429.3,476
			c2.6,8.6,3.7,17.7,5.4,26.6c0.1,0.6,0,1.3,0,2.3c-1,0-1.7,0-2.7,0c-0.7-3.4-1.4-6.8-2-10.2c-3.3-18.8-12.4-34.8-24.1-49.6
			c-11.2-14.1-21.7-28.7-29.3-45c-3.6-7.6-6.1-15.6-9.1-23.4c-0.2-0.5-0.2-1-0.3-1.5c0-0.1,0.2-0.3,0.3-0.5
			c3.8,8.5,7.6,16.9,11.4,25.3c-1.8-10.5-8.9-19.4-9.6-30.7c6.1,16.4,12.7,32,21.8,46.4c5.6,8.8,12.2,16.9,18.4,25.3
			C417.5,451.8,425.3,463,429.3,476z M390.4,406.6c0.3-8.1,0.7-16.3,1-24.7C393.6,388.1,393.3,399.9,390.4,406.6z M409.9,423.1
			c0,3.5,0,6.9,0,10.4C406.4,430,410,426.6,409.9,423.1z M416.4,443.3c-0.8-1.1-1.3-1.9-1.9-2.6c-3.8-3.7-3.3-8.1-2.6-12.7
			c0.5-3.3,0.7-6.8,1.1-10.1c0.1-0.8,0.4-1.5,0.8-2.9c0.4,5.6,0.8,10.5,1.1,15.4c0.3,0,0.6,0,0.8,0c0-5.4,0-10.8,0-16.2
			c0.3,0,0.6,0,0.9,0C418.9,423.6,418.3,433.1,416.4,443.3z M448.1,375.4c10.9,12,9.2,31.5,1.3,46.9c-0.7-0.7-1.3-1.3-1.9-2
			c-1.5-1.9-2.8-3.9-1.8-6.6c4.3-12,3.6-23.8-0.8-35.6c-0.2-0.4-0.2-0.9-0.1-1.4c6.1,8.8,7.2,18.9,7.1,29.2
			C454,395.5,452.6,385.6,448.1,375.4z M485.2,412c-6.6-11.6-14.4-22.5-24-31.9c-8.5-8.4-17.2-16.7-25.7-25.1
			c-3.5-3.4-6.7-7.1-10.1-10.7c0.3-0.3,0.6-0.6,0.9-0.9c6.4,5.6,12.8,11.2,19.2,16.9c10.6,9.6,20.6,19.7,29.7,30.6
			c13.1,15.8,21.5,33.8,26,53.7c0.4,1.9,1,3.8,1.6,5.9c-1,0.4-1.9,0.8-3.2,1.3c-0.7-2.5-1.3-4.8-1.9-7.2
			C494.9,433.2,491,422.2,485.2,412z M397.7,387.3c1.5-9.1,0.5-18.1-0.6-27.1c5.8,18.2,4.7,36.3-2,54.1c-1.9-3.4,1.4-6.4,0.6-10
			c-0.8,2.4-1.6,4.5-2.4,6.6c-0.2,0-0.5,0-0.7,0c-0.1-0.8-0.4-1.6-0.2-2.3c2-7.8,2.1-15.8,1.4-23.8c-0.9-10.1-1.4-20.2-3-30.2
			c-0.8-5.3-3.6-10.3-5.5-15.4c-0.5-1.2-1.1-2.4-1.6-3.5c0.2-0.1,0.5-0.2,0.7-0.2C393.6,351.5,396.9,369,397.7,387.3z M376.7,351.9
			c4,10.6,6.3,21.3,3.8,32.5c-0.4,0-0.8,0.1-1.1,0.1c-0.2-2.4-0.7-4.8-0.6-7.3c0.1-5.2-0.4-10.3-2.5-15.4c0.4,4.8,0.8,9.3,1.2,13.8
			c-0.2,0-0.5,0.1-0.7,0.1c-2.7-9.9-5.3-19.7-8-29.5c1.3,2.5,2.7,5.1,4,7.8c-1.4-11.5-8.9-20-15.7-29.4
			C361.5,326.7,373.9,344.5,376.7,351.9z M363.9,371.2c-0.7,7-3.2,13.6-6.8,19.7c-4.3,7.1-8.9,14.1-13.6,21
			c-2.1,3.2-4.5,6.2-6.8,9.3c-0.2-0.1-0.4-0.1-0.6-0.2c1.4-2.7,2.6-5.5,4.2-8.1c5.1-8.8,10.7-17.3,15.3-26.4
			c6.9-13.6,7.4-27.9,2.9-42.4c-1.7-5.4-3.8-10.7-5.8-16.2c1.3,1.9,2.8,3.7,3.9,5.6C363.1,345.4,365.3,358,363.9,371.2z
			 M369.9,413.6c1.6,7.7,3,15.6,5,23.3c3,11.8,6.7,23.3,9.5,35.1c4.7,19.4,6.8,39.1,6.5,59.1c0,1-0.2,2-0.3,3.1
			c-1.7-0.1-2.4-0.7-2.4-2.5c0.5-14.6-0.7-29.1-3.3-43.4c-2.5-13.8-6.5-27.1-10.8-40.4c-3.5-10.7-6.2-21.6-7-32.8c0-0.7,0-1.3,0-2
			c0.1,0,0.2,0,0.4,0c1.1,6.2,2.2,12.5,3.4,18.7C370.6,425.7,369,419.6,369.9,413.6z M381.8,440.6c0-3.3,0-6.6,0-9.9
			c1.5,2,1.8,5.7,0.7,10C382.2,440.7,382,440.6,381.8,440.6z M392.9,453.6c0.2,1.4,0.3,2.8,0.6,4.1c1.6,6.6,3.5,13.2,5,19.8
			c1.2,5.5,2.2,11.1,3,16.6c0.8,5.3-0.2,10.5-2,15.5c0.3-8,0.4-15.9-2.4-23.6c1.5,9.5,1.9,19-0.3,28.5c0-3,0-6.1,0-9.1
			c0.1-7.8-2.3-15.2-4.2-22.7c-1.4-5.6-2.6-11.3-3.7-17c-0.3-1.6,0-3.4,0.3-5.1c1.8,6.6,3.1,13.3,7.6,18.8
			C394.4,471,392.1,462.6,392.9,453.6z M393.8,547l0.1,4.1c-1.2-1-10.9-4.6-17.2-0.2l0.2-3.9C380.8,542.7,389.7,543.9,393.8,547z
			 M377.5,543.6l0.2-3.5c3.5-3.8,11.6-2.8,15.3,0l0.1,3.7C391,542.7,383.2,539.6,377.5,543.6z M395,554.9l0.1,4.8l-1.6-0.9l-0.1-2.9
			l-0.3,2.7c0,0-10.6-4.3-18,0.8l0.3-4.5C379.9,550,390.3,551.3,395,554.9z M395.8,563.8l0.1,5.2l-1.7-0.9l-0.1-3.1l-0.3,2.9
			c0,0-11.6-4.7-19.6,0.9l0.3-4.9C379.3,558.5,390.6,559.9,395.8,563.8z M396.9,573.1c0.2,1.1,0,8.4,0,8.4l-2.4-1.4
			c0,0,0-3.3-0.3-6.5c-0.2,1.9-0.4,4.2-0.6,6.1c-5.4-3-15.4-3.6-20.6-0.6l0-5.7C374,571.4,385.6,566.2,396.9,573.1z M401.9,592.7
			l-0.2,20.7c0,0.1-0.1,0.2-0.2,0.1c-6.8-6.8-22.2-12.2-36.3-1.8c-0.1,0.1-0.2,0-0.2-0.1l1-20.1C375.9,583.4,392.1,583,401.9,592.7z
			 M385.9,458c-2-4.2-0.7-10.6,3.7-18C388.4,445.8,387.2,451.5,385.9,458z M384.5,450.8c-0.4-0.1-0.8-0.2-1.2-0.3c0-5,3-9.2,3.6-14
			c0.5,0.1,0.9,0.2,1.4,0.3C387,441.5,385.7,446.2,384.5,450.8z M372.3,449.7c7.6,17.9,11.9,36.7,13.4,56c0.6,8.4,0.7,16.8,1,25.2
			c0,1-0.2,2-0.3,3.1c-1.3-0.1-2.5-0.1-4-0.2c0-2,0-4,0-6c0-16.5-1-32.9-4.8-49c-3.2-13.5-8.4-26.3-13.7-39
			c-4.2-10.1-6.2-20.5-5.1-31.4c0.2-2.5,0-5.1,0-7.7c0.3,0,0.5,0,0.8,0c0.5,7,1,14.1,1.5,21.1c0.1,0,0.1,0,0.2-0.1
			c0.4-7.2,0.8-14.4,1.2-21.6c0.3,0,0.6,0,1,0c0,1.9,0.1,3.8,0,5.8C362.5,421.2,366.3,435.6,372.3,449.7z M356.4,508.2
			c-0.4,0.8-0.9,1.6-1.3,2.4c-1.6-1.6-0.5-3,0-4.3c2.5-6.7,4.9-13.4,7.4-20.1c0.2-0.6,0.3-1.2,0.2-1.9c-3.1,6.6-4.7,13.9-9.3,19.8
			c2.3-8.9,5.4-17.7,6.8-26.7c1.4-9.1,1.2-18.5,1.7-27.4c2.8,10.1,2.6,20.7,1.2,31.4c3.5-7.8,2.2-16,2-24.2c2.8,5.9,2.8,12,1.8,18.2
			C365.1,486.8,362,497.9,356.4,508.2z M363.7,505.8c-1.6,4.9-3.5,9.7-7.1,13.6c-0.5-0.3-0.9-0.6-1.4-0.9
			C358,514.3,360.9,510.1,363.7,505.8z M342.7,461.9c1.3-3.8,3-7.5,4.6-11.3c-1.7,2.9-3.5,5.8-5.2,8.6c-0.2-0.1-0.4-0.2-0.6-0.3
			c0.8-2.1,1.5-4.2,2.4-6.1c1.7-3.6,3.7-7.1,5.3-10.7c1.6-3.6,2.9-7.4,4.9-10.9c-0.9,3-1.8,6-2.8,9c-1.2,3.4-2.6,6.8-3.8,10.2
			c4.2-6.1,6.9-12.8,8.3-20.1c0.6,13.6-8.4,24.1-12.4,36.2c-0.3,0-0.6-0.1-0.8-0.1C342.5,465,342.2,463.3,342.7,461.9z M341.6,437.4
			c0.6-8.3,3.5-16,7.3-23.3C347.6,422.2,346.2,430.3,341.6,437.4z M354.4,405.3c0.5,13.3-3.8,25.4-11.6,36.5
			C346.7,429.6,350.6,417.4,354.4,405.3z M344.6,468.7c3.1-6.7,6.5-13.3,9.8-19.9c0.8-1.6,1.6-3.2,2.4-4.8
			c-1.6,10.6-9.8,18.5-11.6,29.2c-0.4-0.1-0.7-0.1-1.1-0.2C344.3,471.4,344,469.9,344.6,468.7z M331.1,427.4
			c-3.1-8.2-4.5-16.7-2.5-25.4c0.1-0.3,0.2-0.5,0.8-0.8c0.1,1.2,0.1,2.3,0.1,3.5c0,7.7,1.9,15.2,4.3,22.4c3.7,11.3,5.5,22,4.3,33.8
			c-0.3,0.1-0.5,0.1-0.8,0.2c-0.4-1.7-1.2-3.4-1.2-5C336.6,446.2,334.6,436.7,331.1,427.4z M328.4,434.8c-2.8-6.2-3.3-12.7-3-19.3
			c0.1,0.4,0.4,0.7,0.4,1.1c0.5,6.9,3.9,13,5.9,19.4c1.8,5.9,2.5,12.1,3.7,18.2c0.1,0.3-0.1,0.7-0.1,1.1c-0.3,0-0.6,0.1-0.9,0.1
			c-0.6-2.4-1.2-4.7-1.9-7.1C331.2,443.8,330.3,439.1,328.4,434.8z M330,446.7c-0.3,0-0.6,0-0.8,0c-3.1-10.8-9.3-21-6.3-32.9
			c0.1,1.6,0.2,3.1,0.3,4.7c0.3,5.8,2,11.2,4.1,16.6c1.2,3.1,2,6.3,2.9,9.5C330.2,445.2,330,446,330,446.7z M335,391
			c0.3,0,0.6,0.1,0.9,0.1c-1,5.8-2,11.7-3,17.5C331.2,402.5,333.7,396.8,335,391z M286.7,507.4c-1.2,4.8-2.3,9.6-3.5,14.4
			c-0.4,0-0.9,0-1.3,0.1c-0.1-1.6-0.8-3.4-0.3-4.8c3.7-10.6,3.8-21.3,2.3-32.2c-0.1-0.7-0.1-1.5-0.1-2.2c0-0.7,0-1.3,0.4-2
			c0.9,4.8,1.8,9.7,2.8,14.5c0.2,0,0.4,0,0.6-0.1c-0.4-3-0.7-6-1.1-9c-0.4-3-0.8-6-1-8.9c6.4,10.1,6.3,40.6-0.6,48.7
			c0-1-0.2-2.1,0-3.1c0.8-5,1.7-10.1,2.6-15.1C287.1,507.5,286.9,507.5,286.7,507.4z M228,458c4.9,15,13.7,27.9,23,40.5
			c6,8.2,12.9,15.9,18.7,24.2c3.8,5.5,6.6,11.7,9.7,17.7c0.9,1.7,1.1,3.9-0.6,5.8c-6-16.1-17.5-28.3-27.6-41.5
			c-10.4-13.4-19.7-27.6-25.6-43.6c-5.9-16-6.4-32.5-2.9-49.1c1.4-6.5,3.1-12.9,6.6-18.7c0.3-0.4,0.5-0.8,1.2-1.8
			c-2.4,8.1-4.5,15.5-6.7,23c0.1,0,0.2,0,0.2,0c2.4-5.2,4.7-10.5,7.1-15.7c0.2,0.1,0.5,0.1,0.7,0.2c-5.9,15.8-7.2,31.9-3.1,48.2
			c1.1,4.6,2.7,9.1,4.6,13.6c-5.6-18.1-7.9-36,0.1-53.9c-6.7,27.4-0.6,52.4,14.8,75.4c8.2,12.3,17.5,23.9,26,35.9
			c3.1,4.4,5.7,9.2,8.6,13.8c1.6,2.5,1.7,4.9,0,7.4c-0.7,1-1.2,2.2-2,3.8c-0.3-7.7-4.7-13.2-8.5-18.7c-6.5-9.4-13.6-18.4-20.4-27.6
			c-9.7-13.3-18.8-26.8-24-42.5c-1.1-3.4-2.1-6.9-3.2-10.4c-0.2,0.1-0.4,0.1-0.7,0.2C225.4,448.6,226.5,453.4,228,458z M263.4,576.1
			c-0.3,0-0.6,0-1,0.1c-2.6-10.3-8.2-19.2-13-28.5c-4.5-8.7-5.9-18.1-5.5-27.8c0.2-3.2,0.5-6.5,0.8-9.7c0.1-1.1,0.4-2.2,0.6-3.4
			c0,3.9,0.1,7.6,0,11.3c-0.4,13.3,3.8,25.2,10.8,36.5c3,4.7,4.9,10.2,6.9,15.4C263.7,571.8,263.3,574,263.4,576.1z M253.7,539.8
			c-4.1-7.3-4.4-15.3-3.7-23.4c1.5,7.9,2.4,15.9,7.2,22.8c-3.2-7.7-4.9-15.5-3.4-23.9c0.2,1.9,0.2,3.9,0.7,5.8
			c1.6,6.3,2.8,12.7,5.1,18.7c2.5,6.6,5.9,12.8,9.2,19.1c1.3,2.5,1,4.3-0.7,6.2C263.4,556.5,258.4,548.2,253.7,539.8z M259.6,524.9
			c0.2-0.1,0.5-0.1,0.7-0.2c0.5,2,0.7,4.2,1.4,6.1c1.9,5.3,4,10.5,5.9,15.8c1.3,3.6,2.6,7.2,3.7,10.8c0.3,0.8-0.1,1.8-0.2,2.8
			c-0.3,0-0.6,0-0.9,0C266.7,548.5,261.5,537.2,259.6,524.9z M265.3,533.2c0.2-0.1,0.4-0.2,0.5-0.3c0.3,0.4,0.6,0.8,0.8,1.2
			c2.6,5.5,5.3,10.9,7.8,16.4c0.4,1,0.2,2.3,0.3,3.4c-0.4,0.1-0.8,0.1-1.1,0.2C270.9,547.2,268.1,540.2,265.3,533.2z M214.1,561.6
			c0.9,6.7,2.1,13.4,3.2,20.1c-0.2,0.2-0.5,0.4-0.7,0.6c-0.5-0.7-1.3-1.3-1.5-2c-1.5-8.4-3.4-16.8-4.3-25.3
			c-2.4-23,3.8-44.3,14.6-64.4c0.8-1.4,1.4-2.9,2.1-4.4c0.2,0.1,0.5,0.2,0.7,0.3c-1.7,4.7-3.2,9.4-5,14.1
			c-3.4,8.7-6.9,17.3-8.5,26.5C212.6,538.5,212.4,550.1,214.1,561.6z M153.4,549.1l0.7-4.6c5.6-4.6,17.6-2.2,22.8,2l-0.3,4.9
			C175.1,550.2,162.4,544.7,153.4,549.1z M176.1,556.2l-0.3,4.9c-1.5-1.3-14.2-6.8-23.2-2.3l0.7-4.6
			C158.9,549.6,170.9,552,176.1,556.2z M155,540.7l0.7-4.3c5.2-4.3,16.4-2,21.2,1.9l-0.3,4.6C175.1,541.7,163.4,536.6,155,540.7z
			 M156.1,533.2l0.7-4.3c5.2-4.3,16.4-2,21.2,1.9l-0.3,4.6C176.2,534.1,164.5,529,156.1,533.2z M177.3,527.2
			c-2.5-1.5-11.9-5.7-19.5-2l0.6-3.9c4.8-3.9,14.8-1.8,19.2,1.7L177.3,527.2z M170.3,457.7c0.5,1.3,0.1,2.8-0.3,4.3
			c-5.9-12-7.1-24.3-2.7-37.4c0,2.3,0.1,4.1,0,5.8C166.6,439.7,167.1,448.9,170.3,457.7z M175.9,439.2c0.3,2.1-0.6,4.4-1.1,6.6
			c-3.6-8-4.5-26.6,0.7-31.2C173.1,423,174.7,431.1,175.9,439.2z M172.3,454.3c-0.3,0-0.6,0.1-0.9,0.1c-1.7-5.3-1.6-10.8-1.6-16.4
			C170.7,443.5,171.5,448.9,172.3,454.3z M166,467.4c-5.5-8.6-8.2-17.9-7.1-28.3C161.3,448.7,163.7,458,166,467.4z M169.5,516
			c0,0.2-0.2,0.5-0.4,0.9c-1.4,0-2.8,0-4.5,0c2.5-25.5,8.3-50.2,17.4-74.1c11.6-30.3,30.5-55.9,52.3-79.7c0.3,0.2,0.6,0.4,0.9,0.6
			c-3.9,4.9-7.7,9.8-11.6,14.6c0.2,0.1,0.3,0.3,0.5,0.4c3.3-3.4,6.5-6.7,9.8-10.1c0.2,0.1,0.3,0.2,0.5,0.3c-1.1,1.7-2.1,3.5-3.3,5.1
			c-6.4,8.4-12.8,16.7-19.2,25.1c-10.4,13.5-18.3,28.4-24.8,44.1c-8.6,21-13.6,42.9-16.9,65.2C170,511.1,169.8,513.6,169.5,516z
			 M176.3,438.6c0-4.1,0-8.2,0-12.3c0.3,4.1,2.6,8.1,0.9,12.3C176.9,438.6,176.6,438.6,176.3,438.6z M183.3,409.8
			c0.3,3.3,1.1,6.5,1.6,9.8c0.2,1.4,0,2.8,0,4.2c-0.4,0-0.8,0.1-1.2,0.1c-0.8-3.8-1.5-7.7-2.3-11.5c-0.7,5.6,2.6,11.1,0.1,16.7
			c-2.7-10-3.2-19.8,1.7-29.6C183.3,403.2,183.1,406.5,183.3,409.8z M200.9,382.3c1.2-3,2.4-6.1,3.7-9.1c0.2,0,0.3,0.1,0.5,0.1
			c-0.7,2.3-1.4,4.6-2,6.9c-2,6.9-3.9,13.9-6.1,20.8c-0.7,2.3-2.2,4.3-3.5,6.4c-1.7-7.4,6.9-35.9,12.8-42.7
			c-2,5.8-3.9,11.6-5.9,17.4C200.4,382.1,200.6,382.2,200.9,382.3z M203.3,389.1c-0.6,2.3-1.2,4.7-1.9,7c-0.3-0.1-0.5-0.1-0.8-0.2
			c0.6-2.3,1.2-4.6,1.9-7C202.8,389,203.1,389.1,203.3,389.1z M190.9,393c-0.9,6.4-1.1,12.9-1.7,19.3c-0.2,1.6-0.7,3.2-1.5,4.7
			c-3.8-13.7,0.5-26,6.8-38C193.2,383.8,191.6,388.3,190.9,393z M239.8,428.5c-0.1-0.5-0.1-1-0.1-1.6c3.2,3.8,6.7,28.7,5.3,38.3
			c-2.2-4.5-3.4-8.8-3.3-13.4C241.9,443.9,241.7,436.1,239.8,428.5z M240.2,450.6c-4.5-10.8-3-21.9-4.2-32.7
			C239.8,428.4,239.6,439.3,240.2,450.6z M250.3,443.1c-0.1-0.9-0.1-1.7-0.1-2.6c0.3,0,0.6-0.1,0.8-0.1c1.5,6.9,3,13.8,4.4,20.2
			c0-1.7,0.1-3.8,0-6c-0.1-2.1-0.3-4.3-0.2-6.4c3.7,11.7,4.4,23.2-1.6,34.7c-2.9-3.9-1.4-8.3-2.1-12.4c-0.4,2-0.9,4.1-1.3,6.1
			c-0.3,0-0.6,0-0.8,0c-0.1-1.1-0.3-2.1-0.2-3.2c0.7-6.3,1.7-12.7,2-19C251.5,450.7,250.7,446.9,250.3,443.1z M261.9,434.7
			c-4.9-7.7-4.5-16.7-6.4-25.2c0-0.2,0.1-0.5,0.1-0.9c3.1,7.7,6,15.2,9.1,22.7c3.1,7.5,5.4,15.1,5.5,22.9
			c-2.7-6.1-5.4-12.2-8.1-18.4c1.4,4.1,3,8.2,4.1,12.5c1,3.7,1.7,7.4,2.2,11.2c0.2,2-0.3,4.1-0.8,6.2c-2.4-10.5-5.7-20.5-9.2-30.5
			c-1.9-5.4-2.9-11.2-4.2-16.9c-0.1-0.3,0.1-0.6,0.4-0.9c1.4,6.7,3.3,13.1,7.7,18.5l0,0C262.1,435.5,262.2,435,261.9,434.7z
			 M259.9,453.5c0-0.2,0.1-0.5,0.3-1c4.7,13,1.8,25.5-0.7,38.1c-1.1-1.7-2.2-3.3-3.3-5.1c-0.2-0.4-0.2-1-0.1-1.4
			C259.7,474.2,260.6,463.9,259.9,453.5z M278.7,514.2c0.8-6.8,1.7-13.7,2.5-20.5c0-0.1,0.2-0.2,0.5-0.4c0.2,7.8,0.5,15.5-2.4,23.1
			C279.1,515.7,278.6,514.9,278.7,514.2z M287.6,526.1c1.9-5.9,4-11.8,4-18.1c0-3,0-6,0-9.1c3.3,10.7,1.8,20.8-3.5,30.5
			c-0.2,0-0.5,0-0.7,0C287.4,528.2,287.3,527.1,287.6,526.1z M288.9,467.7c2,6.2,4,12.3,6,18.5c0.2-0.1,0.4-0.1,0.6-0.2
			c-1.6-7.3-3.2-14.6-4.8-21.9c0.2-0.1,0.5-0.2,0.7-0.2c0.2,0.3,0.6,0.7,0.7,1c2.1,8.9,4.2,17.8,6.2,26.7c0.3,1.4,0,2.9-0.2,4.4
			c-0.3,2-0.8,4.1-1.2,6.1C294.3,490.5,289.4,479.6,288.9,467.7z M297.5,476.8c-1.6-5.5-4.3-10.8-4.7-16.7c0.3-0.1,0.5-0.2,0.8-0.2
			c1.6,5.5,3.2,11.1,4.8,16.6C298.1,476.7,297.8,476.7,297.5,476.8z M222.1,367.6c9.1-14.1,23.1-24.6,30.8-39.8
			C247.3,344.5,234.6,355.9,222.1,367.6z M143.7,396.4c-1.4,8.4,1,16.7,1.4,25.1c-8.3-14.5-2.7-37.8,7.1-48.8
			C148.2,380.2,145,388,143.7,396.4z M151.3,380.2c-3.8,12.1-4.4,24.6-5,37.1C143.1,404.3,145.3,392,151.3,380.2z M165,385.1
			c1.3-9.6,6.6-17.3,12.3-24.7C173.2,368.6,169.1,376.8,165,385.1z M167.9,367c-4.9,8.9-5.9,18.8-7.8,28.5c-0.3,0-0.6-0.1-0.8-0.1
			c0-1.8,0.1-3.5,0-5.3c-0.8-16.9,7.5-29.5,19.6-40.3c2.5-2.2,5-4.3,7.6-6.4C179.9,351.1,172.8,358.2,167.9,367z M178.9,344
			c-11.8,10.8-18.2,24.3-20.3,39.9c-0.5,4.1-0.2,8.3-0.3,12.4c0,1.1-0.3,2.2-0.4,3.3c-0.2,0-0.5-0.1-0.7-0.1
			c-3.1-8.6-2-17.3-0.2-25.9c3.1-15,13.3-24.8,25.3-33.3C181.2,341.6,180.1,342.9,178.9,344z M164.3,349.2
			c-10.8,12-22.1,23.6-32.1,36.2c-14.4,18.2-25.5,41.9-31,64.5c0,0-2.3-0.7-2.3-0.8c2.7-8.5,5.8-19.8,9-28.1
			c8.8-22.6,23.8-41.2,40.6-58.4c5.8-5.9,11.8-11.6,17.8-17.4c1.3-1.3,2.9-2.3,4.3-3.4c0.2,0.2,0.4,0.4,0.6,0.7
			C168.9,344.7,166.4,346.8,164.3,349.2z M107.2,558.5l1-2.7c4-2.1,11.1,0.9,13.7,4.1l-0.8,3C119.5,561.3,113.3,556.9,107.2,558.5z
			 M119.7,556.4c-1.9-0.6-2.2-1.4-1.8-2.9c4.3-19.2,8.7-38.4,12.7-57.7c5.7-27.5,14.9-53.7,29.2-78.1c7.1-12.2,14.1-24.4,21.2-36.5
			c7.1-12,15.5-22.9,25.3-32.9c1.2-1.2,2.6-2.2,4.2-3c-0.5,0.8-1,1.6-1.6,2.3c-8.5,10.1-15.5,21.1-22.3,32.3
			c-8.9,14.9-17.9,29.7-26.5,44.7c-12.6,21.8-20.8,45.3-26.3,69.8c-4,17.8-7.8,35.7-11.8,53.5C121.4,550.7,120.5,553.5,119.7,556.4z
			 M178.9,487.6c-1.9,9.9-4,19.7-6,29.8c-1.2,0.3-2.2,0.2-1.9-1.9c3.8-31.5,11.7-61.9,26.6-90.2c7.5-14.2,16.8-27,27.3-39.2
			c2-2.3,4-4.6,6-6.9c0.3,0.2,0.5,0.4,0.8,0.5c-2.6,4.1-4.9,8.4-8,12.2c-11.7,14.5-21.2,30.2-29.2,46.8
			C187.1,454.3,182.2,470.8,178.9,487.6z M200.3,441.4c0.3-2.5,0.8-5,1.8-7.4c-0.1,1.1-0.2,2.1-0.2,3.2c-0.3,7.6,1.1,15,3.3,22.3
			c2.2,7.1,3.9,14.4,5.9,21.6c0.1,0.2,0.3,0.4,0.8,0.5c-0.4-2.4-0.6-4.7-1.1-7.1c-0.5-2.4-1.1-4.9-1.8-7.3
			c-2.6-9.1-5.3-18.2-5.2-27.8c0-1.2,0-2.4,0-3.6c0.2,0,0.5,0,0.7-0.1c0.3,1.9,0.6,3.8,0.8,5.7c0.6,7.1,2.3,14,5.4,20.4
			c4.3,9,4.5,17.7-0.6,27.3c-2.9-14.5-12.6-26.1-13.4-40.7c1.6,4.3,3.3,8.6,4.9,12.9c0.2-0.1,0.4-0.1,0.6-0.2
			C200.6,454.6,199.6,448,200.3,441.4z M210.7,423.2c-1.3,10.7,1.2,20.8,5,30.7c-1.4-8.3-4-16.4-3.7-24.9c1.3,6,2.6,11.9,4,17.9
			c1,4.1,2.1,8.2,3.2,12.3c0.7,2.7,0.5,4.2-1.3,7.3C211.5,452.5,206.6,438.6,210.7,423.2z M219.3,406.5c-1.1,8.8-2.1,17.3-3.1,25.8
			C214.5,423.4,215.5,414.9,219.3,406.5z M186.3,477.2c1.4,4.1,2.6,7.7,3.8,11.2C186.8,487.4,184.9,482.6,186.3,477.2z M199.8,476.3
			c2.2,4.1,3.1,8.6,3.4,13.1c0.4,4.5,0.5,9.1,0.7,14.2c2.3-5,1.4-10,1.4-15c3.7,5.2,0.4,19.4-5.2,27.5
			C202.9,502.7,202.1,489.5,199.8,476.3z M204.1,535.4c0.8-11.4,3.7-22.3,7.4-33c2.7-8,5.9-15.9,8.6-23.9c1.2-3.5,1.8-7.1,2.7-10.7
			c0.2,0,0.4,0.1,0.7,0.1c0.5,6.8-2.5,13.1-3.6,19.6c0.3,0.1,0.5,0.2,0.8,0.2c1.7-5.2,3.4-10.4,5.3-16.2c0.1,5.9-0.7,11.2-2.7,16.2
			c-3.3,8.4-7,16.6-9.8,25.1c-5.9,18.3-6.5,37.1-2.5,55.9c0.9,4.5,2,9,3.1,13.8c-1.4,0.5-3,1-4.9,1.6c-1-5-2.1-9.8-3-14.7
			C204.3,558.1,203.3,546.8,204.1,535.4z M222.1,584.9l1,4c-1.4-0.7-11.6-2.2-16.8,3.5l-0.6-3.8
			C208.4,583.6,217.4,582.7,222.1,584.9z M225,592.4l1.1,4.7l-1.7-0.5l-0.7-2.8l0.3,2.7c0,0-11.3-1.9-17.4,4.7l-0.7-4.5
			C209.1,590.9,219.6,589.9,225,592.4z M227.7,600.9l1.2,5.1l-1.9-0.6l-0.8-3l0.3,2.9c0,0-12.3-2.1-18.9,5.1l-0.8-4.9
			C210.4,599.3,221.8,598.2,227.7,600.9z M230.8,609.7c0.4,1,1.9,8.1,1.9,8.1L230,617c0,0-0.7-3.2-1.8-6.3c0.3,1.9,0.5,4.2,0.8,6.1
			c-5.9-1.7-15.7,2-20.2,6.1l-1.4-7.8C208.1,613,218.3,605.5,230.8,609.7z M233.3,551.6c-4.7-7.4-8.6-15.3-10.1-24
			c-0.5-3-0.1-6.2-0.1-9.3c8.1,25.1,10.2,30.3,14.4,34.4c-4-7.6-7.4-15.5-9.1-24c-1.7-8.5-2.1-16.9,0.1-25.4c0,5,0,10.1,0,15.1
			c0.1,0,0.2,0,0.2,0c1-9,2-17.9,3-26.9c0.3,0,0.6,0,1,0.1c-0.1,1-0.1,1.9-0.2,2.9c-1.5,12.9-3.2,25.9-0.1,38.7
			c1.7,7.2,5.3,13.9,8.3,20.8c2.1,4.9,4.5,9.6,6.8,14.4c0.4,0.8,0.5,1.7,0.7,2.6c-0.3,0-0.4,0-0.5,0
			C244.3,563.5,237.6,558.4,233.3,551.6z M247.5,556.2c-5.2-7.6-9.6-15.5-11.2-24.6c-1.4-8.3-0.9-16.7,0.2-25.1
			c0.3-2.5,0.7-5,1.5-7.5c0,5.8,0,11.5,0,17.8c1-6.9,1.9-13.3,2.8-19.8c0.1,0,0.3,0,0.4,0c0,3.8,0.2,7.6-0.1,11.3
			c-1.2,15,0.5,29.3,8.6,42.7c4.6,7.6,7.4,16.1,11,24.2c1.2,2.8,0.8,5.5-0.4,8c-1.4-4.3-2.3-8.9-4.2-12.9
			C253.6,565.5,250.6,560.8,247.5,556.2z M316.9,549.2c-0.2,0-0.4,0-0.6,0.1c-2.5-7.4-4.4-14.8-2-22.6c0.2,0,0.5,0,0.7-0.1
			C315.6,534.1,316.2,541.6,316.9,549.2z M312.7,673.3l-0.1-2.9l-0.3,2.7c0,0-10.7-4.2-18,0.9l0.2-4.5c4.4-4.9,14.9-3.7,19.6-0.2
			l0.1,4.8L312.7,673.3z M314.9,678.3l0.1,5.2l-1.7-0.9l-0.1-3.1l-0.3,2.9c0,0-11.6-4.6-19.6,1l0.2-4.9
			C298.4,673.1,309.7,674.4,314.9,678.3z M295.7,665.5l0.2-3.9c3.8-4.3,12.8-3.2,16.9-0.1l0.1,4.1C311.7,664.6,302,661,295.7,665.5z
			 M309.7,657.8c-1.2-0.5-2.8-0.9-3.9-0.9c-0.8-18.8,1.8-79-8.1-96.5c0.4-0.2,0.8-0.3,1.2-0.5c1.6,3.1,3.5,6.1,4.7,9.4
			c5,13.3,6.5,27.1,5.6,41.1C309.1,612.2,309.7,655.6,309.7,657.8z M310.6,582.6c-0.3-0.9-0.5-1.8-0.8-2.7
			c-2.7-7.2-5.4-14.4-8.1-21.6c-0.8-2.1-1.2-4.1-0.1-6.8c0.7,2.4,1.3,4.2,1.8,6c0.2,0,0.3-0.1,0.5-0.1c-0.3-1.4-0.6-2.8-1.1-4.5
			C308,559.4,311.8,573.6,310.6,582.6z M278.9,608.3c1.6-9.6,3.6-19.2,5.5-28.8c0.3-1.7,0.7-3.5,1-5.2c0.2,0,0.5,0,0.7,0.1
			c-0.2,3.4-0.1,6.8-0.6,10.2c-1.1,7.2-2.8,14.3-3.9,21.5c-0.9,6.2-1.4,12.5-2.1,18.8C278.5,619.3,277.9,613.8,278.9,608.3z
			 M290,568.1c6.3,4.8,11,21.2,12.3,30.4c-0.2-2.8-0.2-5.6-0.6-8.4c-0.4-3-1.1-5.9-1.8-8.8c-0.7-2.8-1.5-5.6-2.4-8.4
			c-0.9-2.7-1.9-5.4-2.8-8.1c0.2-0.1,0.4-0.2,0.7-0.3c1.2,2.5,2.4,4.9,3.5,7.4c5.8,13.5,6.9,27.6,4.9,42c-0.2,1.5-0.6,25.8-0.1,43
			c-0.9-0.1-4.4,0.6-5,0.7c-0.3-8.5,0-58.1-0.6-66.3C297.4,583.1,293.5,575.6,290,568.1z M316.1,687.5c0.2,1.1,0.1,8.4,0.1,8.4
			l-2.4-1.3c0,0,0-3.3-0.4-6.5c-0.2,1.9-0.4,4.2-0.5,6.1c-5.5-2.9-15.4-3.4-20.6-0.4l-0.1-5.7C293.2,686,304.8,680.8,316.1,687.5z
			 M325.6,482.6c-0.1-0.2,0-0.5,0.1-0.7c9.5,21.7,5.5,42.2-6.5,61.9c0.3-1.5,0.3-3.2,0.9-4.6c3.9-9.9,6.9-20.1,7.9-30.7
			C328.9,499.7,327.6,491.1,325.6,482.6z M326.8,499.6c0.8,11.7-1.7,22.8-7.1,33.2c-0.3,0-0.6,0-0.9,0c0.2-1.5,0.2-3,0.7-4.4
			c3.1-8.4,5.5-17.1,5.2-26c-0.2-7.3-2.1-14.6-3.2-21.8c-0.1-0.9-0.4-1.7-0.2-2.6C323.6,485,326.3,492,326.8,499.6z M321.7,493.7
			c2.2,11.9,0.9,23.5-3.3,35.3C319.5,517,320.6,505.3,321.7,493.7z M322.1,564.9c-1.4-5.1-0.6-10.7,2.1-16.2
			c3.3-6.6,6.2-13.4,8.9-20.3c1.1-2.9,1.2-6.3,1.7-9.6c1.5,5.9-0.1,11.2-1.9,16.4c-1.2,3.3-3.2,6.4-4.4,9.8
			C326.1,551.7,324.1,558.6,322.1,564.9z M332.5,540.6c1.6-3.4,2.3-7.2,3.4-10.9c0.2-0.5,0.3-1,0.7-2.1c1.4,5.9,0,10.8-1.9,15.6
			c-3.1,7.7-6.3,15.3-9.5,23c-0.2,0.4-0.4,0.7-0.6,1.1C324.3,557.3,328.6,549.1,332.5,540.6z M348.8,485.9c-0.1-1.2-0.4-2.4-0.1-3.5
			c1.9-7.9,4-15.7,6-23.6c0-0.1,0.2-0.3,0.5-0.7C354.4,467.9,353,477.1,348.8,485.9z M350.4,489.6c2.3-10.8,4.8-21.7,7-31.7
			c1.2,11.8-2,23.7-7,35.4C350.3,492.1,350.1,490.8,350.4,489.6z M356.6,550.8c2.7-7.4,5.9-14.6,9.1-21.8c3-6.5,6.3-12.9,9.5-19.3
			c0.4-0.8,0.9-1.5,1.5-2.2c-0.9,7.9-3.4,15.3-7.5,22.1c-4.8,7.9-9.4,16-12.2,24.8c-0.7,2.3-1.2,4.8-1.8,7.2c-0.2,0-0.4-0.1-0.6-0.1
			C355.3,558,355.3,554.2,356.6,550.8z M402,625.9c-9.7-12.1-28.8-11.3-37.9-1.9c-0.1,0.1-0.3,0-0.3-0.1c0.1-1.5,0.5-6.9,0.5-7.5
			c0,0,0-0.1,0-0.1c0.5-0.5,6.6-5.9,18.7-5.9c11.2,0,18.8,8.1,18.7,8.1c0,0,0,0,0,0c0.4,0.1,0.1,4.8,0.4,7.3
			C402.3,626,402.1,626.1,402,625.9z M396.2,452.1c1.9,5.3,3.8,10.6,5.7,16c0.2,0,0.3-0.1,0.5-0.1c-0.7-3.5-1.3-6.9-2-10.4
			c2.4,3.4,3.2,7.4,4,11.3c0.8,4,1.5,8.1,2.4,12.2c0.3-7-0.5-13.9-3.1-20.8c5.9,6.1,6.5,24.5,1.7,34
			C404.8,479.2,397.3,466.4,396.2,452.1z M404.2,451c-11.2-14.1-22.2-28.5-30.2-44.8c-3.1-6.3-5.5-12.8-8.2-19.3
			c-0.2-0.6-0.3-1.3-0.5-2.6c0.7,0.9,1.1,1.1,1.3,1.5c10.7,22.8,24.6,43.7,40.6,63.3c12.2,15,19.7,32,22.6,51c0.2,1.6,0.6,3.3,0.9,5
			c-1.6,0.6-2.9,1.1-4.4,1.7c-0.7-3.7-1.4-7.4-2-11.1C421.8,479,414.7,464.3,404.2,451z M447.2,551.6c0.9,1.3,7.9,40.5,7.9,40.5
			c-4.6-5.4-23.4-8.2-34,2.2l-0.9-40.4C427.7,548.9,438.4,547.8,447.2,551.6z M439.1,433.3c-6-7.4-11.3-15.3-16.8-23.1
			c-1-1.4-1.6-3-2.4-4.4c0.3-0.2,0.6-0.3,0.9-0.5c1,1.3,2,2.5,3.1,3.8c7.8,9.8,15.9,19.4,23.4,29.4c9.8,12.9,15.6,27.6,20,43
			c5.8,20.4,8.5,41.3,11.5,62.2c2.1,14.9,4.6,29.7,6.9,44.6c-1.1-0.1-3.3,0.4-4.7,0.9c-0.7-3.5-6.2-40.5-8.4-56
			c-2.7-18.8-5.4-37.5-10.7-55.8C457.4,461.2,449.9,446.5,439.1,433.3z M492.6,591.6l0.8,3.5c-1.2-0.6-10-2-14.6,2.9l-0.5-3.3
			C480.8,590.4,488.6,589.7,492.6,591.6z M495,598.1l0.9,4l-1.5-0.5l-0.6-2.4l0.2,2.3c0,0-9.8-1.7-15.1,3.9l-0.6-3.9
			C481.3,596.7,490.4,595.9,495,598.1z M497.5,462.3l-0.7-3.9c2.9-5.2,12.2-6.3,17.1-4.3l1.1,4.1
			C512.3,457.4,502.8,456.3,497.5,462.3z M504.4,450.1c-1.2-4.2-2.4-8.4-3.6-12.6c-6.3-22.3-17.9-41.7-33.9-58.5
			c-9-9.5-18.6-18.4-27.8-27.6c-2.7-2.7-5.8-5.3-7.3-9.7c7.9,7.2,15.4,14,22.9,20.7c0.2-0.2,0.3-0.3,0.5-0.5
			c-5.3-7.3-13.7-11.8-18.1-20.1c1.1,0.6,2.3,1,3.2,1.8c5.4,5.3,10.8,10.5,16,15.9c5.7,5.9,11.1,12.1,16.6,18.1
			c17.2,19,28.5,41,34.9,65.6c0.5,1.9,0.9,3.8,1.5,6C507.6,449.6,506.1,449.8,504.4,450.1z M424,322.5
			c-12.5-6.4-14.8-18.4-16.9-30.5C410.8,303.2,416.1,313.6,424,322.5z M299.1,350.1c-1.5,8.3-4.6,16.1-9.3,23.2
			c-4.4,6.6-9,13.1-13.7,19.9c0.5-2.9,0.8-5.8,1.6-8.5c3.1-10.9,6.4-21.7,9.5-32.5c1.1-3.8,1.6-7.8,2.3-11.8c1.5,11.9-1.5,23-5,34.1
			c4.1-7.1,7-14.6,7.6-22.7c0.7-10,1-20.1,1.5-30.1c0.1-1.1,0-2.3,0.2-3.5c2.6,13.6,3.5,27.3,0.5,41c2.3-5.8,3.4-11.8,3.3-18
			c-0.2-8.4-0.9-16.7-1.4-25.1c-0.1-1.8,0-3.6,0.5-5.5c0.8,4.3,1.7,8.6,2.4,13C300.3,332.3,300.7,341.2,299.1,350.1z M288.6,297.1
			c-3.3,3.8-10,8.5-13.7,9.2c6.3-6.4,13.3-12.2,16.8-20.3c3.4-7.9,5.5-16.3,8.2-24.5C298.3,274,297.5,286.8,288.6,297.1z
			 M201.7,297.6c-4.6,9.8-11.1,18-20.4,23.9c-0.9,0.6-1.9,1-3.3,1.7c3.6-4.3,7-7.8,9.8-11.7c2.7-3.7,5-7.7,7.1-11.7
			c4.2-8.2,8.8-16.1,15.6-22.5c2.5-2.4,5.4-4.3,8.2-6.5c0.2,0.2,0.4,0.4,0.5,0.6C210.8,278.5,206.2,288,201.7,297.6z M195.7,294.3
			c-2.9,5.5-5.8,11-9.2,16.3c-2.4,3.7-5.7,6.8-9.4,9.4c-0.2-0.1-0.3-0.3-0.5-0.4c1.5-2.2,3.2-4.3,4.6-6.7
			c4.3-7.2,8.3-14.6,12.7-21.8c2.6-4.3,5.6-8.2,8.5-12.3c0.7-1.1,1.7-2,2.5-2.8C201.9,282.1,198.9,288.2,195.7,294.3z M165.5,339.7
			c-4.5,5.2-8.5,9.8-12.5,14.4c-8.9,10.4-18.1,20.6-26.7,31.3c-12.5,15.7-21.1,33.5-26.6,52.7c-1,3.3-1.9,7-2.8,10.5
			c-1.7-0.5-4.1-0.9-4.2-0.9c5.5-28.1,19.1-52.2,36.4-74.5C139.3,360.3,160.1,341.1,165.5,339.7z M104.9,455.6l-0.9,4
			c-2.2-1.9-10.9-7.6-19-5l1.2-3.7C91.6,447.8,101.2,451.4,104.9,455.6z M104,463.3l-1,4.5c-1.2-1.4-12-8.3-20.9-5.5l1.3-4.1
			C89.3,454.7,99.9,458.7,104,463.3z M101.7,470.6l-1,4.5c-1.2-1.4-12-8.3-20.9-5.5l1.3-4.1C87,462,97.6,466,101.7,470.6z
			 M100.5,478.7l-1.1,4.8c-1.3-1.5-12.9-9-22.5-6l1.4-4.4C84.6,469.5,96.1,473.7,100.5,478.7z M98.2,488l-1.1,4.8
			c-1.3-1.5-12.9-9-22.5-6l1.4-4.4C82.3,478.8,93.7,483.1,98.2,488z M91.4,492.1c2,1.7,6.9,5.4,6.9,5.4c1.1,1.1,1.9,2.6,1.3,4.5
			c-3.3,10.7-11.5,38.7-12.4,42.1c-5.4-3-10.2-5.7-15.2-8.2c-1.5-0.7-3.6-1-5.2-0.7c-4,0.8-7.9,2.1-12.3,3.3
			c0.3-1.4,9.1-31.4,13.2-45.3c0.5-1.8,1.5-2.7,3.2-3.5C78.3,486.6,85.1,486.9,91.4,492.1z M73.6,572.5l3.6-11.9
			c3.8,9.4,8.1,18.5,13.1,27.3l-9.6,22.5c-8.7-13.6-16.1-28.1-22.2-43.2L73.6,572.5z M83.4,663.2c0,0-5.6,6.1-6.8,5.6
			c-1.2-0.5-3.3-10.1-3.3-10.1l3.1-8.7l7,2l-2.4,8.7l0.4,0.2c0,0,3.3-5.5,4.1-7.5l1.2,1.5L83.4,663.2z M87.8,652.3l-1.3-1.7l3.2-8
			l1.1,1.7L87.8,652.3z M91.7,642.6l-1.2-1.7l5.2-12.7l0.8,2.4L91.7,642.6z M286.4,729.5c-76.2-3.5-143.8-40.1-188.8-95.7
			c1.3,0,4.2,0,5.7-1.1c1.5-1,5.1-10.9,6.6-15.2c30.2,39,72.2,68.3,120.7,82.7l0.7,6.2c0,0,5.1,5.7,6.6,6.4c1.3,0.6,4.6-6.7,5.7-9.1
			c14,3.3,28.5,5.3,43.3,6l-1.4,16.7C285.5,726.5,285.8,728.2,286.4,729.5z M311.4,755.5c-6.5,4.3-16.1,2.2-18.9-1.2
			c-0.2-0.3-0.2-0.6,0-0.9c4.4-5.3,14.5-3.4,18.5-0.6C312.1,753.6,312.5,754.8,311.4,755.5z M298.2,747.5l0.4-11.5l0.1-1.8l0.2-5.6
			c2.5-0.8,7.2-0.7,9.6,0.3l-0.2,5.7l-0.1,2l-0.3,11.2C305.1,746.8,300.5,747,298.2,747.5z M312.4,735.8c0-0.6,0.1-1.3,0.1-1.9
			C312.4,734.5,312.4,735.1,312.4,735.8c-0.2,6.1-0.5,13.7-0.5,13.7c-0.9-0.7-1.8-1-1.8-1s0.2-6.4,0.3-12.2c0-0.7,0-1.3,0.1-1.9
			c0-1.6,0.1-3.2,0.1-4.4c0.9,0.4,1.3,0.6,2,1.2c0,0.8-0.1,1.8-0.1,2.8c2.4-0.7,4-1.7,4-2.8c0.1-2.4-5.7-4.7-13.1-5.1
			c-7.3-0.4-13.4,1.2-13.5,3.6c-0.1,1.1,1.2,2.2,3.4,3.1c0-0.6,0-1.2,0-1.7c0.7-0.6,1.2-1,2.1-1.4c0,1.1-0.1,2.3-0.1,3.7
			c0,0.6,0,1.2-0.1,1.8c-0.2,6.1-0.5,13.3-0.5,13.3s-0.9,0.3-1.8,0.9c0,0,0.2-8.8,0.4-15c-4-1.9-5.1-4.7-5.7-7.7
			c0,0,2.6-28.9,2.6-29.1c7.7-6.8,25.9-0.7,28.2,2.1l0.5,30.1C317.8,731.5,316.7,734.3,312.4,735.8z M320.4,728.8l-0.6-19.8
			c46.4-4.1,89-21.6,124-48.5c-1.2-0.3-2.3-1.1-2.6-2.5c-0.5-2.3-0.8-8.6-0.8-8.6l6-0.3l0.6,6.7l0.4-0.1l-0.5-6.7l1.2,0
			c0.2,2.8,0.5,4.9,0.6,7.5c10.5-8.6,20.3-18,29.2-28.2l3.2,25.5C439.3,695.9,383,723.6,320.4,728.8z M490.8,658.5
			c0-0.7,1.6-2.3,1.6-2.3l3.7,19.3c-0.3,0.1-1,0.6-1.4,0.8C493.8,672.3,490.8,658.5,490.8,658.5z M500.7,654.7
			c0.3,0.1,1.6,0.8,1.8,1.2c1.1,5.5,2.2,13.1,3.3,18.7c-3.7-1.2-6.7-0.6-8.7,0.4c-0.8-4.2-2.7-14.7-3.5-19.4
			c0.7-1.2,3.7-1.6,5.3-0.8c0,0.1,3.2,16.7,3.3,16.9c0,0,1.5,0.1,1.4,0C502.7,666,501.7,660.3,500.7,654.7z M496.6,676.9
			c1.6-1.7,6.6-2.1,8.3-1.2c2.1,1.1,1.4,3.7,1.4,3.7l-9.8,1.6C496.5,680.9,495,678.6,496.6,676.9z M504.6,695.7
			c-1,0.2-4.9-4.2-4.9-4.2c-0.3-1.5-1.7-9.6-1.7-9.6l5.7-1.1l1.5,6.8l0.3-0.1l-1.1-6.9l0.9-0.2l1.7,10.2
			C507.2,690.9,505.6,695.6,504.6,695.7z M505.4,657.9c1.5-3,0.9-8.6-10.6-7.2c-10.5,1.3-9.3,9.4-5.8,9.8c-3.4-0.4-4.9-1.9-5.3-4.4
			c-1.2-7.7-2.7-20-3.8-27.7c0-1.1,3.2-5.9,10.9-6.6c7.7-0.7,12.1,2.7,12.1,2.7l4.9,26.9C508.3,653.5,507.6,656.9,505.4,657.9z
			 M504.6,627l-6.3-25.7c7.2-11.4,13.6-23.5,19.1-36.3l2.8,13c5.3,2.9,10.4,2.2,12.9,1.5C525.3,596.3,515.7,612.3,504.6,627z
			 M535.9,566c-3-1.1-9.3,0.1-12.6,2.7c0,0-3.8-19.5-4-19.7c1.8-1.4,8.9-3.5,12.7-1.4C532,548,535.9,566,535.9,566z M534.2,548.5
			c0.2-0.2,2.6,1.4,2.6,1.4l3.7,17.8c-1.1-0.7-2.6-1.2-2.6-1.2S535.4,554.4,534.2,548.5z M521.6,569.7c0,0-0.9,0.6-1.1,1.1
			l-3.9-19.8l1.4-1.1L521.6,569.7z M532.2,577.5c-5.6,0.8-10.4-0.5-10.8-3.1c-0.4-2.5,3.8-5.3,9.4-6.1c5.6-0.8,10.4,0.5,10.8,3.1
			C541.9,573.9,537.7,576.6,532.2,577.5z M541.1,560l-1-4.5c1.2,0,2,0,2.6-0.1C542.2,556.9,541.6,558.5,541.1,560z M540.8,553.1
			c0.3-1.4,1-12.2-14.3-10.2c-7.1,1-22.7,4.9-12.5,15.7c-13.5-4.1-5.5-17.7,8.6-20.9C548.3,532,544.3,550.8,540.8,553.1z
			 M546.1,544.6c-1.8-6.2-4.8-6.9-4.8-6.9l3.7,0.6c-0.4-2.1-4.7-6.6-4.7-6.6l3,0.6l-8.7-29.6c1.4-10.1,2.1-20.3,2.1-30.6
			c0.2-131.7-106.4-238.6-238.1-238.7C167.1,233,60.2,339.6,60,471.3c0,11.9,0.8,23.6,2.5,35l-11,35.7l7.4-2.3l-4.6,16.3
			c-9.2-26.5-14.1-55-14.1-84.7c0.2-142.6,116-258,258.5-257.8c142.6,0.2,258,116,257.8,258.5C556.6,497.2,552.9,521.5,546.1,544.6z
			"/>
	</g>
</g>
<g id="Layer_3">
</g>
<g id="Layer_4">
</g>
</svg>
